<svg width="752" height="557" viewBox="0 0 752 557" fill="none" xmlns="http://www.w3.org/2000/svg">
<g clip-path="url(#clip0_88_2)">
<path d="M70.9805 553.838H230.246V548.95C230.246 544.707 228.56 540.637 225.56 537.637C222.559 534.636 218.49 532.95 214.246 532.95H86.9805C82.737 532.95 78.6673 534.636 75.6667 537.637C72.6662 540.637 70.9805 544.707 70.9805 548.95V553.838Z" fill="#E6E6E6"/>
<path d="M154.341 533.925L149.497 531.975C200.174 406.186 195.292 247.493 152.454 111.362C147.365 95.5892 146.998 78.673 151.398 62.6945C155.798 46.7159 164.772 32.3721 177.218 21.4276C202.083 -0.761345 236.362 -6.16676 266.685 7.31934C296.616 20.6333 300.741 43.8243 300.741 66.9025H295.519C295.519 42.2677 290.255 23.519 264.562 12.0905C236.143 -0.548442 204.008 4.52105 180.695 25.3242C169.005 35.6034 160.576 49.0756 156.443 64.0833C152.31 79.091 152.655 94.9795 157.435 109.794C200.768 247.496 205.364 407.28 154.341 533.925Z" fill="#E6E6E6"/>
<path d="M296.825 143.924C286.731 143.924 278.548 135.742 278.548 125.648C278.548 115.554 286.731 107.372 296.825 107.372C306.918 107.372 315.101 115.554 315.101 125.648C315.101 135.742 306.918 143.924 296.825 143.924Z" fill="#E6E6E6"/>
<path d="M324.972 157.509V122.88H319.587V157.509C318.043 158.134 316.764 159.276 315.969 160.741C315.175 162.205 314.914 163.9 315.232 165.536C315.551 167.171 316.428 168.645 317.714 169.705C318.999 170.764 320.614 171.344 322.28 171.344C323.946 171.344 325.56 170.764 326.846 169.705C328.132 168.645 329.009 167.171 329.327 165.536C329.645 163.9 329.385 162.205 328.59 160.741C327.796 159.276 326.517 158.134 324.972 157.509Z" fill="#E6E6E6"/>
<path d="M351.001 96.275C350.992 88.3145 347.826 80.6827 342.197 75.0538C336.568 69.4249 328.936 66.2586 320.976 66.2495H271.368C263.405 66.2495 255.768 69.4129 250.137 75.0438C244.506 80.6747 241.343 88.3118 241.343 96.275C241.343 104.238 244.506 111.875 250.137 117.506C255.768 123.137 263.405 126.301 271.368 126.301H320.976C328.936 126.291 336.568 123.125 342.197 117.496C347.826 111.867 350.992 104.235 351.001 96.275Z" fill="#608DEE"/>
<path d="M420.896 282.212C415.915 218.489 390.449 188.128 406.755 169.089C422.375 150.851 466.372 154.619 494.628 172.119C570.84 219.321 598.761 407.451 500.688 499.368C407.493 586.711 230.871 558.737 191.62 487.247C182.461 470.567 175.186 441.325 188.59 423.616C221.868 379.648 342.861 459.285 396.655 409.475C428.536 379.956 423.629 317.183 420.896 282.212Z" fill="#3F3D56"/>
<path d="M362.638 250.554C364.489 251.406 365.935 252.946 366.668 254.847C367.401 256.748 367.363 258.86 366.562 260.734C366.393 261.112 366.194 261.476 365.965 261.821L382.323 283.663L374.161 295.863L354.987 263.52C353.628 262.46 352.659 260.981 352.229 259.313C351.8 257.644 351.935 255.881 352.613 254.297C353.008 253.4 353.576 252.589 354.284 251.911C354.992 251.233 355.826 250.701 356.74 250.345C357.653 249.99 358.628 249.818 359.608 249.839C360.588 249.86 361.554 250.074 362.452 250.469C362.514 250.497 362.577 250.525 362.638 250.554Z" fill="#FFB6B6"/>
<path d="M362.651 288.212C361.581 289.162 364.55 290.334 367.692 288.485C368.59 287.95 368.974 287.728 369.075 287.869C369.328 288.223 367.853 290.828 368.247 296.616C368.489 300.07 374.226 306.565 380.741 312.898C389.548 321.463 399.79 329.725 399.79 329.725L403.386 326.846L441.09 296.616L447.453 287.808C446.871 284.33 445.996 280.908 444.837 277.577C443.242 272.966 441.346 268.465 439.161 264.103C437.989 261.73 436.787 259.467 435.636 257.386L415.435 279.647L398.507 298.293C398.507 298.293 393.578 290.354 389.761 288.192C389.274 287.881 388.72 287.691 388.145 287.637C384.286 287.455 384.054 285.354 388.528 280.779C393.003 276.203 387.357 280.476 383.377 279.243C379.398 278.011 383.377 279.244 382.539 276.163C381.701 273.082 370.54 266.901 370.54 266.901L370.075 267.315L361.641 274.759L359.227 276.89C359.227 276.89 361.864 284.122 362.591 285.647C363.318 287.172 363.712 287.253 362.651 288.212Z" fill="#608DEE"/>
<path d="M140.327 428.521L139.916 417.38L182.692 410.493L183.299 426.935L140.327 428.521Z" fill="#FFB6B6"/>
<path d="M148.092 431.875L148.498 414.037L140.872 414.319L128.561 397.828C127.953 397.014 127.101 396.415 126.128 396.119C125.156 395.823 124.115 395.846 123.156 396.184C122.197 396.522 121.372 397.158 120.8 397.998C120.229 398.838 119.94 399.84 119.978 400.855L120.76 422.045L128.438 425.419L120.947 427.124L121.242 435.113L148.092 431.875Z" fill="#2F2E41"/>
<path d="M381.077 432.858L245.589 436.294C245.589 436.294 187.08 439.673 173.353 430.743L158.877 428.915L158.092 407.652C158.092 407.652 166.944 407.717 172.034 405.346C177.123 402.974 173.586 400.073 178.438 402.926C183.291 405.779 182.778 406.122 186.53 404.811C190.282 403.5 362.325 377.276 362.325 377.276L381.077 432.858Z" fill="#2F2E41"/>
<path d="M202.539 423.631L194.66 415.744L221.335 381.601L232.963 393.243L202.539 423.631Z" fill="#FFB6B6"/>
<path d="M210.513 416.769L198.678 403.417L193.279 408.809L173.038 405.093C172.039 404.91 171.006 405.05 170.092 405.495C169.178 405.939 168.43 406.664 167.958 407.564C167.485 408.464 167.312 409.491 167.464 410.496C167.617 411.501 168.086 412.431 168.805 413.15L183.79 428.153L191.713 425.404L187.381 431.748L193.031 437.405L210.513 416.769Z" fill="#2F2E41"/>
<path d="M434.531 358.656L433.184 389.967C431.598 426.826 391.006 449.135 359.529 429.89C358.949 429.535 358.367 429.168 357.783 428.788C357.783 428.788 345.85 425.583 346.213 420.508C346.575 415.433 343.66 412.963 341.08 414.347C338.5 415.731 304.723 367.795 304.723 367.795C304.723 367.795 234.545 402.801 219.063 411.042C219.063 411.042 204.507 388.283 205.562 388.521C206.617 388.76 292.381 328.733 292.381 328.733C292.381 328.733 306.353 314.593 323.685 323.929C324.046 325.3 323.737 325.348 323.737 325.348L380.99 372L389.079 356.637L434.531 358.656Z" fill="#2F2E41"/>
<path d="M380.549 319.513C380.658 320.96 380.864 322.397 381.165 323.816C381.578 325.87 382.243 327.865 383.145 329.755C383.145 329.755 383.145 331.866 387.185 338.936C391.225 346.006 386.175 342.976 383.145 348.228C380.115 353.47 383.145 351.056 386.508 354.43C387.477 355.412 388.164 356.635 388.5 357.972C388.836 359.31 388.807 360.713 388.417 362.035C388.417 362.035 431.808 362.066 439.888 359.036C447.969 356.006 449.807 338.936 442.565 337.249C435.333 335.563 444.757 333.886 449.009 329.997C453.261 326.109 444.757 319.746 444.757 319.746C444.757 319.746 448.261 313.696 447.969 293.384C447.927 291.516 447.755 289.653 447.453 287.809C446.871 284.331 445.996 280.908 444.837 277.577C443.242 272.966 441.346 268.466 439.161 264.103C437.99 261.73 436.788 259.467 435.636 257.387C435.454 257.063 435.283 256.75 435.101 256.437C432.909 252.559 430.909 249.387 429.586 247.357C428.566 245.781 427.95 244.893 427.95 244.893L420.597 232.106L396.053 243.61L397.447 262.427L393.215 276.617L391.266 283.152L389.761 288.192L387.438 296C387.438 296 388.074 296.03 387.316 297.07C383.828 301.709 381.566 307.153 380.741 312.898C380.45 315.09 380.386 317.307 380.549 319.513Z" fill="#608DEE"/>
<path d="M309.67 321.541L310.13 321.392L368.875 302.476L347.228 231.459C346.797 230.045 346.05 228.747 345.045 227.663C344.039 226.579 342.801 225.738 341.423 225.202C340.045 224.667 338.563 224.451 337.09 224.571C335.616 224.692 334.189 225.145 332.916 225.897L295.376 248.076C292.405 249.83 290.144 252.572 288.989 255.823C287.834 259.075 287.858 262.629 289.058 265.864L309.67 321.541Z" fill="#2F2E41"/>
<path d="M309.431 326.056L368.648 306.987L347.001 235.97C346.57 234.556 345.824 233.258 344.818 232.174C343.813 231.091 342.574 230.249 341.196 229.714C339.818 229.178 338.336 228.962 336.863 229.083C335.389 229.203 333.963 229.656 332.69 230.408L293.357 250.046C287.448 253.536 287.587 262.569 290.33 269.981L309.431 326.056Z" fill="#608DEE"/>
<path d="M315.36 331.196C316.724 331.965 318.232 332.443 319.79 332.598C321.348 332.753 322.922 332.582 324.41 332.096L362.26 319.907C365.164 318.958 367.582 316.912 368.997 314.204C370.413 311.497 370.713 308.343 369.835 305.417L350.859 243.162C350.479 241.919 349.856 240.763 349.024 239.763C348.193 238.764 347.17 237.941 346.016 237.341C344.862 236.742 343.6 236.38 342.303 236.275C341.007 236.17 339.704 236.325 338.468 236.731L299.244 249.61C297.375 250.224 295.648 251.205 294.165 252.498C292.682 253.79 291.473 255.366 290.609 257.133C289.745 258.901 289.245 260.823 289.136 262.787C289.028 264.751 289.315 266.717 289.979 268.569L310.268 325.134C311.179 327.702 312.988 329.855 315.36 331.196Z" fill="#3F3D56"/>
<path d="M397.441 232.324C382.468 232.324 370.33 220.186 370.33 205.214C370.33 190.241 382.468 178.104 397.441 178.104C412.413 178.104 424.551 190.241 424.551 205.214C424.551 220.186 412.413 232.324 397.441 232.324Z" fill="#FFB6B6"/>
<path d="M489.114 232.732C486.626 237.555 482.547 241.368 477.568 243.526C475.581 244.431 473.492 245.092 471.346 245.495C470.74 243.09 469.769 240.791 468.467 238.679C468.901 241.059 468.901 243.498 468.467 245.879C465.198 246.146 461.909 245.738 458.804 244.679C455.755 243.642 452.989 241.909 450.727 239.617C448.465 237.325 446.767 234.537 445.77 231.475C443.611 224.289 445.937 216.614 446.12 209.113C446.309 201.611 442.747 192.639 435.3 191.711C429.628 191.003 430.33 191.553 426.255 195.559C431.955 201.891 418.059 229.936 410.602 228.697C406.386 227.996 403.284 224.649 402.45 224.765C398.181 235.221 411.024 250.051 400.837 254.919L401.593 253.919C406.925 245.111 391.148 230.233 396.48 221.425C397.967 218.961 399.512 216.072 398.592 213.346C397.72 210.754 393.299 209.934 392.367 212.293C393.883 206.887 389.65 200.541 384.029 199.989C379.035 199.496 379.323 200.92 374.562 202.218C373.953 200.167 373.076 198.205 371.954 196.384C372.334 198.462 372.381 200.587 372.093 202.68C370.375 202.885 368.638 202.517 367.151 201.634C362.754 198.998 362.623 192.194 365.644 188.053C368.67 183.911 373.739 181.866 378.629 180.318C378.674 169.977 406.5 165.026 411.618 174.641C412.145 166.856 421.069 161.612 428.756 162.934C436.444 164.257 442.508 170.421 446.206 177.291C449.903 184.157 451.738 191.844 454.444 199.156C457.151 206.469 461.019 213.76 467.5 218.099C473.98 222.432 483.609 222.826 489.02 217.209C490.254 219.608 490.905 222.263 490.922 224.96C490.938 227.657 490.319 230.319 489.114 232.732Z" fill="#2F2E41"/>
<path d="M461.297 356.705C460.736 356.256 460.128 355.871 459.482 355.556C449.106 350.391 416.837 336.986 391.605 337.536C343.057 338.594 281.274 392.173 295.653 428.153C306.594 455.531 360.989 471.107 400.695 458.649C456.321 441.196 478.277 370.244 461.297 356.705Z" fill="#3F3D56"/>
<path d="M662.84 553.941C678.703 550.948 692.745 479.48 661.534 444.282C650.841 432.223 637.502 426.974 619.76 422.09C517.638 393.975 439.749 420.769 429.281 427.311C418.838 433.839 400.529 532.187 423.941 546.108C437.114 553.941 463.223 557.857 476.159 548.719C495.194 535.273 463.244 500.395 477.465 476.919C493.602 450.278 578.58 441.304 621.183 467.781C666.637 496.028 572.881 570.912 662.84 553.941Z" fill="#F2F2F2"/>
<path d="M556.778 432.43H617.383C632.343 418.092 643.04 404.274 634.476 392.804C634.476 389.507 633.166 386.345 630.835 384.014C628.504 381.682 625.342 380.373 622.045 380.373H552.117C548.819 380.373 545.657 381.682 543.326 384.014C540.995 386.345 539.685 389.507 539.685 392.804C536.424 405.874 542.25 419.084 556.778 432.43Z" fill="#CCCCCC"/>
<path d="M567.662 364.722C568.238 364.749 568.807 364.598 569.293 364.29C569.779 363.982 570.159 363.532 570.381 363.001C570.604 362.47 570.657 361.883 570.535 361.321C570.412 360.758 570.12 360.247 569.697 359.856L569.505 359.092C569.53 359.03 569.556 358.969 569.581 358.908C570.16 357.54 571.131 356.373 572.371 355.555C573.612 354.736 575.066 354.303 576.552 354.308C578.038 354.314 579.489 354.758 580.723 355.586C581.957 356.413 582.919 357.587 583.488 358.96C585.762 364.438 588.658 369.925 589.371 375.717C589.685 378.278 589.553 380.873 588.98 383.388C594.322 371.735 597.096 359.069 597.114 346.249C597.115 343.032 596.936 339.818 596.579 336.621C596.283 334 595.873 331.398 595.348 328.815C592.485 314.797 586.337 301.658 577.41 290.477C573.089 288.12 569.595 284.494 567.398 280.09C566.602 278.507 566.04 276.816 565.728 275.072C566.216 275.136 567.566 267.713 567.198 267.257C567.878 266.227 569.093 265.714 569.835 264.709C573.525 259.706 578.608 260.58 581.261 267.377C586.93 270.238 586.985 274.983 583.507 279.547C581.294 282.45 580.99 286.378 579.048 289.486C579.248 289.742 579.455 289.99 579.655 290.245C583.307 294.941 586.489 299.983 589.157 305.299C588.509 299.343 589.283 293.319 591.417 287.721C593.58 282.503 597.633 278.109 601.203 273.599C605.491 268.182 614.283 270.546 615.039 277.413C615.046 277.48 615.053 277.546 615.06 277.613C614.53 277.912 614.011 278.229 613.503 278.565C612.865 278.992 612.371 279.601 612.085 280.313C611.799 281.025 611.735 281.806 611.901 282.555C612.066 283.305 612.455 283.986 613.015 284.511C613.575 285.035 614.28 285.378 615.038 285.495L615.116 285.507C614.927 287.418 614.593 289.312 614.117 291.172C618.697 308.882 608.81 315.333 594.693 315.623C594.381 315.782 594.078 315.942 593.766 316.094C596.446 323.691 598.128 331.603 598.768 339.633C599.13 344.371 599.109 349.13 598.704 353.864L598.728 353.696C599.751 348.432 602.559 343.682 606.678 340.249C612.796 335.223 621.44 333.372 628.041 329.332C628.742 328.882 629.558 328.641 630.392 328.639C631.225 328.637 632.042 328.874 632.746 329.321C633.449 329.768 634.01 330.406 634.363 331.162C634.715 331.917 634.845 332.758 634.735 333.584C634.726 333.643 634.717 333.702 634.708 333.761C633.724 334.161 632.766 334.623 631.84 335.143C631.309 335.442 630.79 335.759 630.283 336.095C629.645 336.522 629.15 337.131 628.864 337.843C628.578 338.555 628.514 339.336 628.68 340.085C628.846 340.834 629.234 341.516 629.794 342.041C630.354 342.565 631.06 342.908 631.818 343.025L631.896 343.037C631.951 343.045 631.999 343.053 632.055 343.061C630.374 347.075 628.015 350.77 625.08 353.984C622.216 369.444 609.918 370.911 596.762 366.409H596.754C595.311 372.681 593.22 378.787 590.514 384.627H568.221C568.141 384.379 568.069 384.123 567.997 383.875C570.061 384.005 572.132 383.882 574.166 383.508C572.512 381.478 570.858 379.433 569.204 377.403C569.167 377.365 569.132 377.325 569.1 377.283C568.261 376.245 567.414 375.214 566.575 374.175L566.575 374.174C566.53 370.99 566.896 367.813 567.662 364.722Z" fill="#CCCCCC"/>
<path d="M491.626 429.183C491.256 430.259 490.555 431.191 489.622 431.844C488.69 432.497 487.575 432.838 486.437 432.818L464.204 432.245C463.058 432.223 461.949 431.83 461.044 431.126C460.14 430.421 459.487 429.443 459.185 428.337L456.038 394.695C454.922 395.2 453.707 395.45 452.482 395.425C450.332 395.371 448.292 394.466 446.81 392.908C445.328 391.349 444.526 389.266 444.58 387.116C444.634 384.967 445.54 382.926 447.098 381.445C448.656 379.963 450.739 379.16 452.889 379.214C453.379 379.213 453.867 379.264 454.346 379.366C454.867 378.802 455.5 378.354 456.204 378.05C456.909 377.746 457.669 377.593 458.436 377.601L492.635 378.484C492.919 378.495 493.201 378.53 493.479 378.589C494.229 378.729 494.94 379.027 495.565 379.465C496.19 379.903 496.714 380.47 497.101 381.127C497.489 381.784 497.731 382.516 497.812 383.275C497.892 384.034 497.809 384.801 497.569 385.525L491.626 429.183ZM455.393 392.41L453.155 384.393C452.9 383.467 452.894 382.49 453.137 381.561C453.029 381.561 452.933 381.51 452.824 381.509C451.289 381.478 449.805 382.056 448.696 383.118C447.587 384.179 446.944 385.637 446.908 387.172C446.872 388.707 447.446 390.193 448.504 391.305C449.562 392.417 451.018 393.065 452.553 393.105C453.545 393.136 454.527 392.896 455.393 392.41Z" fill="#CCCCCC"/>
<path d="M493.479 378.589C492.751 382.755 484.559 385.684 474.709 385.175C465.652 384.757 458.245 381.577 456.889 377.807C457.391 377.659 457.913 377.589 458.436 377.601L492.636 378.484C492.919 378.495 493.202 378.53 493.479 378.589Z" fill="white"/>
<path d="M329.99 289.414C332.026 289.488 333.953 290.354 335.361 291.827C336.768 293.3 337.545 295.265 337.527 297.302C337.516 297.716 337.472 298.129 337.393 298.535L360.892 312.409L358.048 326.809L327.912 304.324C326.251 303.869 324.787 302.876 323.749 301.501C322.711 300.126 322.158 298.446 322.175 296.723C322.195 295.743 322.407 294.777 322.799 293.878C323.192 292.98 323.758 292.168 324.465 291.489C325.172 290.81 326.005 290.276 326.918 289.919C327.831 289.561 328.805 289.387 329.785 289.407C329.854 289.408 329.922 289.41 329.99 289.414Z" fill="#FFB6B6"/>
<path d="M349.24 322.486C349.868 321.644 350.139 321.292 350.281 321.389C350.649 321.611 350.295 324.586 352.883 329.771C356.527 337.056 394.727 348.214 394.727 348.214L399.431 339.603L420.118 301.763L427.249 271.434C427.498 270.376 427.62 269.292 427.61 268.206C421.252 263.732 414.5 259.846 407.438 256.595C404.616 258.196 402.465 260.759 401.378 263.815L387.137 303.745L381.455 319.687C381.455 319.687 371.43 312.519 367.794 313.834C364.164 315.158 363.133 313.302 365.506 307.36C367.879 301.417 364.317 307.534 360.172 307.923C356.019 308.317 360.172 307.923 358.21 305.401C356.248 302.88 343.566 301.461 343.566 301.461L343.296 302.023L338.381 312.134L336.974 315.039C336.974 315.039 342.185 320.692 343.442 321.819C344.705 322.954 345.095 322.875 344.477 324.168C343.866 325.455 347.057 325.397 349.24 322.486Z" fill="#608DEE"/>
</g>
<defs>
<clipPath id="clip0_88_2">
<rect width="751.131" height="556.415" fill="white" transform="matrix(-1 0 0 1 751.131 0)"/>
</clipPath>
</defs>
</svg>
