<svg width="120" height="120" viewBox="0 0 120 120" fill="none" xmlns="http://www.w3.org/2000/svg">
<rect x="60" y="31.2108" width="3.50877" height="27.0852" rx="1.75439" fill="white"/>
<path d="M30.4348 91.0345H98.2609V104.828H30.4348C26.5948 104.828 23.4783 101.738 23.4783 97.931C23.4783 94.1241 26.5948 91.0345 30.4348 91.0345Z" fill="#D4DDEE"/>
<path d="M20 97.5345V22.069C20 15.3966 25.4435 10 32.1739 10L33.913 11.7241V84.1379L32.1739 87.5862L20 97.5345Z" fill="#4963BF"/>
<path d="M99.9999 13.4483V87.5862H32.1738V10H96.5217C98.4347 10 99.9999 11.5517 99.9999 13.4483Z" fill="#416CDB"/>
<path d="M26.9565 98.2069C27.113 101 29.6348 103.103 32.4522 103.103H98.2609C99.2174 103.103 100 103.879 100 104.828V108.276C100 109.224 99.2174 110 98.2609 110H32.6783C25.8957 110 20.0348 104.621 20 97.931V97.5345C20.1043 94.3448 21.4435 91.5 23.5652 89.3966C24.6933 88.2727 26.035 87.3816 27.5127 86.7749C28.9903 86.1683 30.5746 85.858 32.1739 85.8621H100V91.0345C100 91.9828 99.2174 92.7586 98.2609 92.7586H32.1739C29.2 92.7586 26.8174 95.2069 26.9565 98.2069Z" fill="#3351BA"/>
<path d="M80.8696 68.6207H49.5653C49.1041 68.6207 48.6617 68.439 48.3356 68.1157C48.0094 67.7924 47.8262 67.3538 47.8262 66.8965C47.8262 66.4393 48.0094 66.0007 48.3356 65.6774C48.6617 65.3541 49.1041 65.1724 49.5653 65.1724H80.8696C81.3309 65.1724 81.7733 65.3541 82.0994 65.6774C82.4256 66.0007 82.6088 66.4393 82.6088 66.8965C82.6088 67.3538 82.4256 67.7924 82.0994 68.1157C81.7733 68.439 81.3309 68.6207 80.8696 68.6207ZM73.9131 77.2414H56.5218C56.0606 77.2414 55.6182 77.0597 55.2921 76.7364C54.9659 76.413 54.7827 75.9745 54.7827 75.5172C54.7827 75.06 54.9659 74.6214 55.2921 74.2981C55.6182 73.9747 56.0606 73.7931 56.5218 73.7931H73.9131C74.3744 73.7931 74.8167 73.9747 75.1429 74.2981C75.469 74.6214 75.6523 75.06 75.6523 75.5172C75.6523 75.9745 75.469 76.413 75.1429 76.7364C74.8167 77.0597 74.3744 77.2414 73.9131 77.2414Z" fill="#3351BA"/>
<rect x="54" y="33" width="4" height="24" rx="2" fill="white"/>
<rect x="80" y="33" width="4" height="30" rx="2" transform="rotate(90 80 33)" fill="white"/>
<rect x="80" y="53" width="4" height="30" rx="2" transform="rotate(90 80 53)" fill="white"/>
<path d="M60.5176 36.0048C60.2318 34.9379 60.8649 33.8412 61.9319 33.5553C62.9988 33.2694 64.0955 33.9026 64.3813 34.9695L69.5577 54.2881C69.8436 55.355 69.2104 56.4517 68.1435 56.7375C67.0766 57.0234 65.9799 56.3903 65.694 55.3233L60.5176 36.0048Z" fill="white"/>
<rect x="72.4705" y="32.7789" width="4" height="24" rx="2" transform="rotate(15 72.4705 32.7789)" fill="white"/>
</svg>
