<svg width="120" height="120" viewBox="0 0 120 120" fill="none" xmlns="http://www.w3.org/2000/svg">
<path d="M30.4348 91.0345H98.2609V104.828H30.4348C26.5948 104.828 23.4783 101.738 23.4783 97.931C23.4783 94.1241 26.5948 91.0345 30.4348 91.0345Z" fill="#D4DDEE"/>
<path d="M20 97.5345V22.069C20 15.3966 25.4435 10 32.1739 10L33.913 11.7241V84.1379L32.1739 87.5862L20 97.5345Z" fill="#201A6B"/>
<path d="M99.9999 13.4483V87.5862H32.1738V10H96.5217C98.4347 10 99.9999 11.5517 99.9999 13.4483Z" fill="#2E1A80"/>
<path d="M26.9565 98.2069C27.113 101 29.6348 103.103 32.4522 103.103H98.2609C99.2174 103.103 100 103.879 100 104.828V108.276C100 109.224 99.2174 110 98.2609 110H32.6783C25.8957 110 20.0348 104.621 20 97.931V97.5345C20.1043 94.3448 21.4435 91.5 23.5652 89.3966C24.6933 88.2727 26.035 87.3816 27.5127 86.7749C28.9903 86.1683 30.5746 85.858 32.1739 85.8621H100V91.0345C100 91.9828 99.2174 92.7586 98.2609 92.7586H32.1739C29.2 92.7586 26.8174 95.2069 26.9565 98.2069Z" fill="#68559E"/>
<path d="M80.8696 68.6207H49.5653C49.1041 68.6207 48.6617 68.439 48.3356 68.1157C48.0094 67.7924 47.8262 67.3538 47.8262 66.8965C47.8262 66.4393 48.0094 66.0007 48.3356 65.6774C48.6617 65.3541 49.1041 65.1724 49.5653 65.1724H80.8696C81.3309 65.1724 81.7733 65.3541 82.0994 65.6774C82.4256 66.0007 82.6088 66.4393 82.6088 66.8965C82.6088 67.3538 82.4256 67.7924 82.0994 68.1157C81.7733 68.439 81.3309 68.6207 80.8696 68.6207ZM73.9131 77.2414H56.5218C56.0606 77.2414 55.6182 77.0597 55.2921 76.7364C54.9659 76.413 54.7827 75.9745 54.7827 75.5172C54.7827 75.06 54.9659 74.6214 55.2921 74.2981C55.6182 73.9747 56.0606 73.7931 56.5218 73.7931H73.9131C74.3744 73.7931 74.8167 73.9747 75.1429 74.2981C75.469 74.6214 75.6523 75.06 75.6523 75.5172C75.6523 75.9745 75.469 76.413 75.1429 76.7364C74.8167 77.0597 74.3744 77.2414 73.9131 77.2414Z" fill="#68559E"/>
<rect width="4" height="24" rx="2" transform="matrix(-1 0 0 1 69 33.2211)" fill="white"/>
<rect width="4" height="24" rx="2" transform="matrix(-1 0 0 1 76 33.2211)" fill="white"/>
<rect width="4" height="24" rx="2" transform="matrix(-1 0 0 1 83 33.2211)" fill="white"/>
<rect width="4" height="44" rx="2" transform="matrix(4.37114e-08 1 1 -4.37114e-08 43 33.2211)" fill="white"/>
<rect width="4" height="44" rx="2" transform="matrix(4.37114e-08 1 1 -4.37114e-08 43 53.2211)" fill="white"/>
<path d="M62.4824 36.2259C62.7682 35.159 62.1351 34.0623 61.0681 33.7764C60.0012 33.4906 58.9045 34.1237 58.6187 35.1907L53.4423 54.5092C53.1564 55.5761 53.7896 56.6728 54.8565 56.9587C55.9234 57.2445 57.0201 56.6114 57.306 55.5445L62.4824 36.2259Z" fill="white"/>
<rect width="4" height="24" rx="2" transform="matrix(-0.965926 0.258819 0.258819 0.965926 50.5295 33)" fill="white"/>
</svg>
