<svg width="24" height="24" viewBox="0 0 24 24" fill="none" xmlns="http://www.w3.org/2000/svg">
<g clip-path="url(#clip0_7_91)">
<path d="M6 7C6 5.67392 6.52678 4.40215 7.46447 3.46447C8.40215 2.52678 9.67392 2 11 2C12.3261 2 13.5979 2.52678 14.5355 3.46447C15.4732 4.40215 16 5.67392 16 7C16 8.32608 15.4732 9.59785 14.5355 10.5355C13.5979 11.4732 12.3261 12 11 12C9.67392 12 8.40215 11.4732 7.46447 10.5355C6.52678 9.59785 6 8.32608 6 7ZM4.822 14.671C6.425 13.694 8.605 13 11 13C11.447 13 11.887 13.024 12.316 13.07C12.4878 13.0884 12.6518 13.151 12.7922 13.2517C12.9326 13.3524 13.0445 13.4878 13.117 13.6446C13.1895 13.8014 13.2202 13.9743 13.206 14.1465C13.1918 14.3186 13.1332 14.4842 13.036 14.627C12.3586 15.6212 11.9975 16.7969 12 18C12 18.92 12.207 19.79 12.575 20.567C12.6467 20.7184 12.6792 20.8853 12.6696 21.0525C12.66 21.2198 12.6085 21.3819 12.5199 21.524C12.4313 21.6662 12.3085 21.7838 12.1626 21.8661C12.0167 21.9484 11.8525 21.9927 11.685 21.995L11 22C8.771 22 6.665 21.86 5.087 21.442C4.302 21.234 3.563 20.936 3.003 20.486C2.41 20.01 2 19.345 2 18.5C2 17.713 2.358 16.977 2.844 16.361C3.338 15.736 4.021 15.161 4.822 14.671ZM18 14C18.2652 14 18.5196 14.1054 18.7071 14.2929C18.8946 14.4804 19 14.7348 19 15V17H21C21.2652 17 21.5196 17.1054 21.7071 17.2929C21.8946 17.4804 22 17.7348 22 18C22 18.2652 21.8946 18.5196 21.7071 18.7071C21.5196 18.8946 21.2652 19 21 19H19V21C19 21.2652 18.8946 21.5196 18.7071 21.7071C18.5196 21.8946 18.2652 22 18 22C17.7348 22 17.4804 21.8946 17.2929 21.7071C17.1054 21.5196 17 21.2652 17 21V19H15C14.7348 19 14.4804 18.8946 14.2929 18.7071C14.1054 18.5196 14 18.2652 14 18C14 17.7348 14.1054 17.4804 14.2929 17.2929C14.4804 17.1054 14.7348 17 15 17H17V15C17 14.7348 17.1054 14.4804 17.2929 14.2929C17.4804 14.1054 17.7348 14 18 14Z" fill="black"/>
</g>
<defs>
<clipPath id="clip0_7_91">
<rect width="24" height="24" fill="white"/>
</clipPath>
</defs>
</svg>
