<svg width="32" height="32" viewBox="0 0 32 32" fill="none" xmlns="http://www.w3.org/2000/svg">
<path d="M5.20001 8.47L6.50001 7.2L24 24.72L22.73 26L20.73 24H8.00001C7.46958 24 6.96087 23.7893 6.5858 23.4142C6.21073 23.0391 6.00001 22.5304 6.00001 22V10C6.00001 9.78 6.04001 9.57 6.10001 9.37L5.20001 8.47ZM11 8L13 6H19L21 8H24C24.5304 8 25.0392 8.21071 25.4142 8.58579C25.7893 8.96086 26 9.46957 26 10V22C26 22.6 25.74 23.13 25.32 23.5L20.33 18.5C20.76 17.77 21 16.91 21 16C21 14.6739 20.4732 13.4021 19.5355 12.4645C18.5979 11.5268 17.3261 11 16 11C15.09 11 14.23 11.24 13.5 11.67L9.82001 8H11ZM11 16C11 17.3261 11.5268 18.5979 12.4645 19.5355C13.4022 20.4732 14.6739 21 16 21C16.5 21 17.03 20.92 17.5 20.77L15.72 19C15.0242 18.9254 14.3748 18.6149 13.88 18.12C13.3851 17.6252 13.0746 16.9758 13 16.28L11.23 14.5C11.08 14.97 11 15.5 11 16ZM16 13C16.7957 13 17.5587 13.3161 18.1213 13.8787C18.6839 14.4413 19 15.2044 19 16C19.0005 16.3406 18.943 16.6787 18.83 17L15 13.17C15.3213 13.057 15.6594 12.9995 16 13Z" fill="black"/>
</svg>
