<svg width="32" height="32" viewBox="0 0 32 32" fill="none" xmlns="http://www.w3.org/2000/svg">
<path d="M16 19C17.6569 19 19 17.6569 19 16C19 14.3431 17.6569 13 16 13C14.3431 13 13 14.3431 13 16C13 17.6569 14.3431 19 16 19Z" fill="black"/>
<path d="M24 8H20.83L19.59 6.65C19.4036 6.44539 19.1767 6.28191 18.9235 6.16999C18.6704 6.05807 18.3968 6.00017 18.12 6H13.88C13.32 6 12.78 6.24 12.4 6.65L11.17 8H8C6.9 8 6 8.9 6 10V22C6 23.1 6.9 24 8 24H24C25.1 24 26 23.1 26 22V10C26 8.9 25.1 8 24 8ZM16 21C13.24 21 11 18.76 11 16C11 13.24 13.24 11 16 11C18.76 11 21 13.24 21 16C21 18.76 18.76 21 16 21Z" fill="black"/>
</svg>
