<svg width="32" height="32" viewBox="0 0 32 32" fill="none" xmlns="http://www.w3.org/2000/svg">
<path fill-rule="evenodd" clip-rule="evenodd" d="M11.574 8.336C11.8479 7.92507 12.2191 7.58812 12.6545 7.35506C13.0899 7.122 13.5761 7.00004 14.07 7H17.93C18.4239 7.00004 18.9101 7.122 19.3455 7.35506C19.7809 7.58812 20.1521 7.92507 20.426 8.336L21.238 9.555C21.3293 9.69192 21.4531 9.80417 21.5982 9.88179C21.7434 9.95942 21.9054 10 22.07 10H23C23.7956 10 24.5587 10.3161 25.1213 10.8787C25.6839 11.4413 26 12.2044 26 13V22C26 22.7956 25.6839 23.5587 25.1213 24.1213C24.5587 24.6839 23.7956 25 23 25H9C8.20435 25 7.44129 24.6839 6.87868 24.1213C6.31607 23.5587 6 22.7956 6 22V13C6 12.2044 6.31607 11.4413 6.87868 10.8787C7.44129 10.3161 8.20435 10 9 10H9.93C10.0946 10 10.2566 9.95942 10.4018 9.88179C10.5469 9.80417 10.6707 9.69192 10.762 9.555L11.574 8.336ZM14 17C14 16.4696 14.2107 15.9609 14.5858 15.5858C14.9609 15.2107 15.4696 15 16 15C16.5304 15 17.0391 15.2107 17.4142 15.5858C17.7893 15.9609 18 16.4696 18 17C18 17.5304 17.7893 18.0391 17.4142 18.4142C17.0391 18.7893 16.5304 19 16 19C15.4696 19 14.9609 18.7893 14.5858 18.4142C14.2107 18.0391 14 17.5304 14 17ZM16 13C14.9391 13 13.9217 13.4214 13.1716 14.1716C12.4214 14.9217 12 15.9391 12 17C12 18.0609 12.4214 19.0783 13.1716 19.8284C13.9217 20.5786 14.9391 21 16 21C17.0609 21 18.0783 20.5786 18.8284 19.8284C19.5786 19.0783 20 18.0609 20 17C20 15.9391 19.5786 14.9217 18.8284 14.1716C18.0783 13.4214 17.0609 13 16 13Z" fill="black"/>
</svg>
