<svg width="32" height="32" viewBox="0 0 32 32" fill="none" xmlns="http://www.w3.org/2000/svg">
<path d="M24 7L6 25Z" fill="black"/>
<path d="M24 7L6 25" stroke="black" stroke-width="3" stroke-linecap="round" stroke-linejoin="round"/>
<path fill-rule="evenodd" clip-rule="evenodd" d="M22.828 10H23C23.7956 10 24.5587 10.3161 25.1213 10.8787C25.6839 11.4413 26 12.2044 26 13V22C26 22.7956 25.6839 23.5587 25.1213 24.1213C24.5587 24.6839 23.7956 25 23 25H9C8.65 25 8.312 24.94 8 24.83L13.087 19.741C13.4538 20.1318 13.8953 20.445 14.3855 20.6618C14.8757 20.8787 15.4044 20.9948 15.9403 21.0033C16.4762 21.0118 17.0084 20.9126 17.5052 20.7114C18.002 20.5102 18.4533 20.2113 18.8323 19.8323C19.2113 19.4533 19.5102 19.002 19.7114 18.5052C19.9126 18.0084 20.0118 17.4762 20.0033 16.9403C19.9948 16.4044 19.8787 15.8757 19.6618 15.3855C19.445 14.8953 19.1318 14.4538 18.741 14.087L22.828 10ZM17.326 15.503C17.5307 15.6838 17.6962 15.9045 17.8123 16.1517C17.9284 16.3989 17.9926 16.6672 18.0011 16.9401C18.0096 17.2131 17.962 17.4848 17.8615 17.7387C17.7609 17.9926 17.6094 18.2232 17.4163 18.4163C17.2232 18.6094 16.9926 18.7609 16.7387 18.8615C16.4848 18.962 16.2131 19.0096 15.9401 19.0011C15.6672 18.9926 15.3989 18.9284 15.1517 18.8123C14.9045 18.6962 14.6838 18.5307 14.503 18.326L17.326 15.503ZM6 21.172V13C6 12.2044 6.31607 11.4413 6.87868 10.8787C7.44129 10.3161 8.20435 10 9 10H9.93C10.0946 10 10.2566 9.95942 10.4018 9.88179C10.5469 9.80417 10.6707 9.69192 10.762 9.555L11.574 8.335C11.848 7.92425 12.2192 7.5875 12.6547 7.35462C13.0901 7.12173 13.5762 6.99993 14.07 7H17.93C18.5404 7.00009 19.1363 7.18638 19.638 7.534L6 21.172Z" fill="black"/>
</svg>
