<svg width="25" height="24" viewBox="0 0 25 24" fill="none" xmlns="http://www.w3.org/2000/svg">
<path d="M14.5 19C18.271 19 20.157 19 21.328 17.828C22.5 16.657 22.5 14.771 22.5 11C22.5 7.229 22.5 5.343 21.328 4.172C20.157 3 18.271 3 14.5 3H10.5C6.729 3 4.843 3 3.672 4.172C2.5 5.343 2.5 7.229 2.5 11C2.5 14.771 2.5 16.657 3.672 17.828C4.325 18.482 5.2 18.771 6.5 18.898" stroke="#888888" stroke-width="2" stroke-linecap="round" stroke-linejoin="round"/>
<path d="M12.5 11V11.01M8.5 11V11.01M16.5 11V11.01M14.5 19C13.264 19 11.902 19.5 10.659 20.145C8.661 21.182 7.662 21.701 7.17 21.37C6.678 21.04 6.771 20.015 6.958 17.966L7 17.5" stroke="#888888" stroke-width="2" stroke-linecap="round"/>
</svg>
