<svg width="24" height="24" viewBox="0 0 24 24" fill="none" xmlns="http://www.w3.org/2000/svg">
<g clip-path="url(#clip0_30_38)">
<path d="M20.4853 3.51469C18.2188 1.24828 15.2053 0 12 0C8.79473 0 5.78119 1.24823 3.51469 3.51469C1.24828 5.78119 0 8.79473 0 12C0 15.2053 1.24823 18.2188 3.51469 20.4853C5.78119 22.7517 8.79473 24 12 24C15.2053 24 18.2188 22.7518 20.4853 20.4853C22.7517 18.2188 24 15.2053 24 12C24 8.79473 22.7518 5.78119 20.4853 3.51469Z" fill="#4550AE"/>
<path d="M20.4853 3.51469C18.2188 1.24828 15.2053 0 12 0V24C15.2053 24 18.2188 22.7518 20.4853 20.4853C22.7517 18.2188 24 15.2053 24 12C24 8.79473 22.7518 5.78119 20.4853 3.51469Z" fill="#222C83"/>
<path d="M19.8352 12C19.8352 16.3272 16.3272 19.835 12.0001 19.835C7.67298 19.835 4.16504 16.3271 4.16504 12C4.16504 7.67286 7.67293 4.16492 12.0001 4.16492C16.3273 4.16492 19.8352 7.67281 19.8352 12Z" fill="#EBF7FF"/>
<path d="M19.8351 12C19.8351 16.3272 16.3271 19.835 12 19.835V4.16492C16.3272 4.16492 19.8351 7.67281 19.8351 12Z" fill="#9CC5E6"/>
<path d="M14.6642 13.9564L12.7031 11.7341V8.0321C12.7031 7.64389 12.3884 7.32898 12 7.32898C11.6116 7.32898 11.2969 7.64389 11.2969 8.0321V12C11.2969 12.1714 11.3595 12.3367 11.4728 12.4653L13.6097 14.8868C13.6756 14.9617 13.7568 15.0217 13.8478 15.0627C13.9387 15.1038 14.0374 15.1249 14.1372 15.1247C14.3024 15.1247 14.4684 15.0668 14.6021 14.9489C14.8932 14.692 14.9211 14.2476 14.6642 13.9564Z" fill="#31394A"/>
</g>
<defs>
<clipPath id="clip0_30_38">
<rect width="24" height="24" fill="white"/>
</clipPath>
</defs>
</svg>
