<svg width="24" height="24" viewBox="0 0 24 24" fill="none" xmlns="http://www.w3.org/2000/svg">
<path d="M12.676 19.959C12.951 20.023 12.976 20.383 12.708 20.472L11.128 20.992C7.158 22.272 5.068 21.202 3.778 17.232L2.498 13.282C1.218 9.312 2.278 7.212 6.248 5.932L6.772 5.758C7.175 5.625 7.567 6.029 7.452 6.438C7.396 6.64 7.342 6.852 7.288 7.072L6.308 11.262C5.208 15.972 6.818 18.572 11.528 19.692L12.676 19.959Z" fill="black"/>
<path d="M17.17 3.209L15.5 2.819C12.16 2.029 10.17 2.679 9 5.099C8.7 5.709 8.46 6.449 8.26 7.299L7.28 11.489C6.3 15.669 7.59 17.729 11.76 18.719L13.44 19.119C14.02 19.259 14.56 19.349 15.06 19.389C18.18 19.689 19.84 18.229 20.68 14.619L21.66 10.439C22.64 6.259 21.36 4.189 17.17 3.209ZM15.29 13.329C15.2 13.669 14.9 13.889 14.56 13.889C14.5 13.889 14.44 13.879 14.37 13.869L11.46 13.129C11.2796 13.0695 11.1284 12.9437 11.0371 12.7771C10.9458 12.6105 10.9212 12.4154 10.9682 12.2313C11.0151 12.0472 11.1302 11.8878 11.2902 11.7853C11.4502 11.6827 11.6431 11.6448 11.83 11.679L14.74 12.419C15.15 12.519 15.39 12.929 15.29 13.329ZM18.22 9.949C18.13 10.289 17.83 10.509 17.49 10.509C17.43 10.509 17.37 10.499 17.3 10.489L12.45 9.259C12.2696 9.1995 12.1184 9.07373 12.0271 8.90709C11.9358 8.74046 11.9112 8.54539 11.9582 8.36129C12.0051 8.17719 12.1202 8.01778 12.2802 7.91526C12.4402 7.81275 12.6331 7.77477 12.82 7.809L17.67 9.039C18.08 9.129 18.32 9.539 18.22 9.949Z" fill="black"/>
</svg>
