<svg width="24" height="24" viewBox="0 0 24 24" fill="none" xmlns="http://www.w3.org/2000/svg">
<path d="M21 22H3C2.59 22 2.25 21.66 2.25 21.25C2.25 20.84 2.59 20.5 3 20.5H21C21.41 20.5 21.75 20.84 21.75 21.25C21.75 21.66 21.41 22 21 22ZM19.02 3.48199C17.08 1.54199 15.18 1.49199 13.19 3.48199L11.98 4.69199C11.88 4.79199 11.84 4.95199 11.88 5.09199C12.2625 6.40437 12.9697 7.59911 13.9363 8.5657C14.9029 9.5323 16.0976 10.2395 17.41 10.622C17.4809 10.6452 17.5568 10.6481 17.6293 10.6305C17.7017 10.6128 17.7678 10.5752 17.82 10.522L19.02 9.31199C20.01 8.33199 20.49 7.38199 20.49 6.42199C20.5 5.43199 20.02 4.47199 19.02 3.48199ZM15.61 11.53C15.32 11.39 15.04 11.25 14.77 11.09C14.5507 10.9593 14.3371 10.8192 14.13 10.67C13.96 10.56 13.76 10.4 13.57 10.24C13.5088 10.1954 13.4519 10.1452 13.4 10.09C13.07 9.80999 12.7 9.44999 12.37 9.04999C12.34 9.02999 12.29 8.95999 12.22 8.86999C12.12 8.74999 11.95 8.54999 11.8 8.31999C11.6575 8.13191 11.5272 7.93483 11.41 7.72999C11.25 7.45999 11.11 7.18999 10.97 6.90999C10.9492 6.86521 10.9288 6.82021 10.909 6.77499C10.761 6.44199 10.326 6.34499 10.069 6.60199L4.34 12.331C4.21 12.461 4.09 12.711 4.06 12.881L3.52 16.711C3.42 17.391 3.61 18.031 4.03 18.461C4.39 18.811 4.89 19.001 5.43 19.001C5.55 19.001 5.67 18.991 5.79 18.971L9.63 18.431C9.81 18.401 10.06 18.281 10.18 18.151L15.902 12.43C16.162 12.17 16.063 11.725 15.726 11.58C15.6873 11.5634 15.6486 11.5467 15.61 11.53Z" fill="black"/>
</svg>
