<svg width="24" height="24" viewBox="0 0 24 24" fill="none" xmlns="http://www.w3.org/2000/svg">
<path d="M16.2656 8.48438C14.3271 8.48438 12.75 10.0615 12.75 12C12.75 13.9385 14.3271 15.5156 16.2656 15.5156C18.2041 15.5156 19.7812 13.9385 19.7812 12C19.7812 10.0615 18.2041 8.48438 16.2656 8.48438ZM17.6719 12.7031H16.2656C15.8773 12.7031 15.5625 12.3883 15.5625 12V10.5938C15.5625 10.2054 15.8773 9.89062 16.2656 9.89062C16.6539 9.89062 16.9688 10.2054 16.9688 10.5938V11.2969H17.6719C18.0602 11.2969 18.375 11.6117 18.375 12C18.375 12.3883 18.0602 12.7031 17.6719 12.7031Z" fill="black"/>
<path d="M16.2656 4.26562H1.54688C0.692578 4.26562 0 4.9582 0 5.8125C0 6.6668 0.692578 7.35938 1.54688 7.35938H6.89062C7.74492 7.35938 8.4375 8.05195 8.4375 8.90625C8.4375 9.76055 7.74492 10.4531 6.89062 10.4531H3.42188C2.56758 10.4531 1.875 11.1457 1.875 12C1.875 12.8543 2.56758 13.5469 3.42188 13.5469H4.07812C4.93242 13.5469 5.625 14.2395 5.625 15.0938C5.625 15.948 4.93242 16.6406 4.07812 16.6406H1.54688C0.692578 16.6406 0 17.3332 0 18.1875C0 19.0418 0.692578 19.7344 1.54688 19.7344H16.2656C20.5372 19.7344 24 16.2716 24 12C24 7.72842 20.5372 4.26562 16.2656 4.26562ZM16.2656 16.9219C13.5517 16.9219 11.3438 14.7139 11.3438 12C11.3438 9.28608 13.5517 7.07812 16.2656 7.07812C18.9795 7.07812 21.1875 9.28608 21.1875 12C21.1875 14.7139 18.9795 16.9219 16.2656 16.9219Z" fill="black"/>
</svg>
