<svg width="24" height="24" viewBox="0 0 24 24" fill="none" xmlns="http://www.w3.org/2000/svg">
<g clip-path="url(#clip0_55_2)">
<path d="M12 2V8.5C12 9.2797 12.5949 9.92045 13.3555 9.99313L13.5 10H20V12.0218C18.9897 11.375 17.7886 11 16.5 11C12.9101 11 10 13.9101 10 17.5C10 19.1438 10.6101 20.645 11.6163 21.7896L11.8096 22H6C4.94564 22 4.08183 21.1841 4.00549 20.1493L4 20V4C4 2.94564 4.81588 2.08183 5.85074 2.00549L6 2H12ZM14 2.04336C14.3222 2.11158 14.624 2.25868 14.8775 2.47305L15 2.58579L19.4142 7C19.6507 7.23647 19.8219 7.52606 19.916 7.84071L19.9566 8H14V2.04336Z" fill="black"/>
<path d="M22.3889 16.7632C22.7264 16.7632 23 17.0224 23 17.3421V17.9211C23 20.479 20.8112 22.5526 18.1111 22.5526H15.9198L16.4043 23.0117C16.643 23.2378 16.643 23.6044 16.4043 23.8304C16.1657 24.0565 15.7788 24.0565 15.5401 23.8304L14.0149 22.3856C13.9226 22.2991 13.8591 22.1849 13.8396 22.0573L13.8333 21.9683C13.8347 21.8276 13.889 21.699 13.9783 21.5993L14.0123 21.5643L15.5401 20.117C15.7788 19.8909 16.1657 19.8909 16.4043 20.117C16.643 20.343 16.643 20.7096 16.4043 20.9357L15.9198 21.3947H18.1111C20.1361 21.3947 21.7778 19.8395 21.7778 17.9211V17.3421C21.7778 17.0224 22.0514 16.7632 22.3889 16.7632ZM19.4599 13.1696L20.9877 14.6169C21.2263 14.843 21.2263 15.2096 20.9877 15.4357L19.4599 16.8831C19.2213 17.1092 18.8343 17.1092 18.5957 16.8831C18.357 16.657 18.357 16.2904 18.5957 16.0643L19.0802 15.6053H16.8889C14.8638 15.6053 13.2222 17.1605 13.2222 19.079V19.6579C13.2222 19.9777 12.9486 20.2369 12.6111 20.2369C12.2736 20.2369 12 19.9777 12 19.6579V19.079C12 16.521 14.1888 14.4474 16.8889 14.4474H19.0802L18.5957 13.9883C18.357 13.7622 18.357 13.3957 18.5957 13.1696C18.8343 12.9435 19.2213 12.9435 19.4599 13.1696Z" fill="black"/>
</g>
<defs>
<clipPath id="clip0_55_2">
<rect width="24" height="24" fill="white"/>
</clipPath>
</defs>
</svg>
