<svg width="24" height="24" viewBox="0 0 24 24" fill="none" xmlns="http://www.w3.org/2000/svg">
<path d="M11.5 22C9.96667 22 8.66667 21.4667 7.6 20.4C6.53333 19.3333 6 18.0333 6 16.5V6C6 4.9 6.39167 3.95833 7.175 3.175C7.95833 2.39167 8.9 2 10 2C11.1 2 12.0417 2.39167 12.825 3.175C13.6083 3.95833 14 4.9 14 6V14H12.5V6C12.5 5.3 12.2583 4.70833 11.775 4.225C11.2917 3.74167 10.7 3.5 10 3.5C9.3 3.5 8.70833 3.74167 8.225 4.225C7.74167 4.70833 7.5 5.3 7.5 6V16.5C7.5 17.6 7.89167 18.5417 8.675 19.325C9.45833 20.1083 10.4 20.5 11.5 20.5C11.9833 20.5 12.4377 20.4207 12.863 20.262C13.2877 20.104 13.6667 19.8833 14 19.6V21.4C13.6167 21.5833 13.2167 21.729 12.8 21.837C12.3833 21.9457 11.95 22 11.5 22V22ZM16 18H14C13.7167 18 13.4793 17.904 13.288 17.712C13.096 17.5207 13 17.2833 13 17C13 16.7167 13.096 16.4793 13.288 16.288C13.4793 16.096 13.7167 16 14 16H16V14C16 13.7167 16.096 13.479 16.288 13.287C16.4793 13.0957 16.7167 13 17 13C17.2833 13 17.5207 13.0957 17.712 13.287C17.904 13.479 18 13.7167 18 14V16H20C20.2833 16 20.5207 16.096 20.712 16.288C20.904 16.4793 21 16.7167 21 17C21 17.2833 20.904 17.5207 20.712 17.712C20.5207 17.904 20.2833 18 20 18H18V20C18 20.2833 17.904 20.5207 17.712 20.712C17.5207 20.904 17.2833 21 17 21C16.7167 21 16.4793 20.904 16.288 20.712C16.096 20.5207 16 20.2833 16 20V18ZM11.5 16.5V18C10.8 18 10.2083 17.7583 9.725 17.275C9.24167 16.7917 9 16.2 9 15.5V6.75C9 6.53333 9.071 6.35433 9.213 6.213C9.35433 6.071 9.53333 6 9.75 6C9.96667 6 10.146 6.071 10.288 6.213C10.4293 6.35433 10.5 6.53333 10.5 6.75V15.5C10.5 15.7833 10.596 16.0207 10.788 16.212C10.9793 16.404 11.2167 16.5 11.5 16.5ZM15.5 11V6.75C15.5 6.53333 15.571 6.35433 15.713 6.213C15.8543 6.071 16.0333 6 16.25 6C16.4667 6 16.646 6.071 16.788 6.213C16.9293 6.35433 17 6.53333 17 6.75V11H15.5Z" fill="black"/>
</svg>
