<svg width="24" height="24" viewBox="0 0 24 24" fill="none" xmlns="http://www.w3.org/2000/svg">
<g clip-path="url(#clip0_5_23)">
<path d="M21.017 7.992C21.415 8.558 20.941 9.25 20.248 9.25H3C2.73478 9.25 2.48043 9.14464 2.29289 8.95711C2.10536 8.76957 2 8.51522 2 8.25V6.42C2 3.98 3.98 2 6.42 2H8.74C10.37 2 10.88 2.53 11.53 3.4L12.93 5.26C13.24 5.67 13.28 5.72 13.86 5.72H16.65C18.455 5.72 20.052 6.617 21.017 7.992ZM20.983 10.75C21.2477 10.75 21.5016 10.8549 21.689 11.0418C21.8765 11.2287 21.9822 11.4823 21.983 11.747L22 16.65C22 19.6 19.6 22 16.65 22H7.35C4.4 22 2 19.6 2 16.65V11.75C2 11.4848 2.10536 11.2304 2.29289 11.0429C2.48043 10.8554 2.73478 10.75 3 10.75H20.983Z" fill="black"/>
<path d="M18.2857 18.7857H18.7857V18.2857V16.8571C18.7857 16.8003 18.8083 16.7458 18.8485 16.7056C18.8887 16.6654 18.9432 16.6429 19 16.6429C19.0568 16.6429 19.1113 16.6654 19.1515 16.7056C19.1917 16.7458 19.2143 16.8003 19.2143 16.8571V18.2857V18.7857H19.7143H21.1429C21.1997 18.7857 21.2542 18.8083 21.2944 18.8485C21.3346 18.8887 21.3571 18.9432 21.3571 19C21.3571 19.0568 21.3346 19.1113 21.2944 19.1515C21.2542 19.1917 21.1997 19.2143 21.1429 19.2143H19.7143H19.2143V19.7143V21.1429C19.2143 21.1997 19.1917 21.2542 19.1515 21.2944C19.1113 21.3346 19.0568 21.3571 19 21.3571C18.9432 21.3571 18.8887 21.3346 18.8485 21.2944C18.8083 21.2542 18.7857 21.1997 18.7857 21.1429V19.7143V19.2143H18.2857H16.8571C16.8003 19.2143 16.7458 19.1917 16.7056 19.1515C16.6654 19.1113 16.6429 19.0568 16.6429 19C16.6429 18.9432 16.6654 18.8887 16.7056 18.8485C16.7458 18.8083 16.8003 18.7857 16.8571 18.7857H18.2857ZM22.8891 22.8891C23.9205 21.8576 24.5 20.4587 24.5 19C24.5 17.5413 23.9205 16.1424 22.8891 15.1109C21.8576 14.0795 20.4587 13.5 19 13.5C17.5413 13.5 16.1424 14.0795 15.1109 15.1109C14.0795 16.1424 13.5 17.5413 13.5 19C13.5 20.4587 14.0795 21.8576 15.1109 22.8891C16.1424 23.9205 17.5413 24.5 19 24.5C20.4587 24.5 21.8576 23.9205 22.8891 22.8891Z" fill="black" stroke="white"/>
</g>
<defs>
<clipPath id="clip0_5_23">
<rect width="24" height="24" fill="white"/>
</clipPath>
</defs>
</svg>
