<svg width="16" height="16" viewBox="0 0 16 16" fill="none" xmlns="http://www.w3.org/2000/svg">
<path d="M14.905 2.21001C14.8355 2.11348 14.734 2.04486 14.6185 2.01645C14.5031 1.98805 14.3813 2.00171 14.275 2.05501L13.62 2.38001L13.945 1.72501C13.9993 1.61881 14.0139 1.49668 13.9861 1.38067C13.9583 1.26466 13.89 1.16241 13.7934 1.09239C13.6968 1.02236 13.5783 0.989182 13.4594 0.998831C13.3405 1.00848 13.229 1.06033 13.145 1.14501L11.145 3.14501C11.0986 3.19173 11.062 3.24713 11.0371 3.30805C11.0122 3.36897 10.9996 3.4342 11 3.50001V4.29501L7.64497 7.64501C7.59811 7.69149 7.56091 7.74679 7.53552 7.80772C7.51014 7.86865 7.49707 7.934 7.49707 8.00001C7.49707 8.06601 7.51014 8.13136 7.53552 8.19229C7.56091 8.25322 7.59811 8.30852 7.64497 8.35501C7.69145 8.40187 7.74675 8.43907 7.80768 8.46445C7.86861 8.48984 7.93396 8.5029 7.99997 8.5029C8.06598 8.5029 8.13133 8.48984 8.19226 8.46445C8.25319 8.43907 8.30849 8.40187 8.35497 8.35501L11.705 5.00001H12.5C12.5658 5.00039 12.631 4.98777 12.6919 4.96289C12.7528 4.93801 12.8082 4.90135 12.855 4.85501L14.855 2.85501C14.9384 2.77085 14.9892 2.65981 14.9983 2.54168C15.0075 2.42355 14.9744 2.30601 14.905 2.21001Z" fill="#4A4A4A"/>
<path d="M6.545 7.645C6.56245 7.56769 6.58757 7.49232 6.62 7.42C6.61733 7.41188 6.61733 7.40312 6.62 7.395C6.69255 7.2245 6.79787 7.06991 6.93 6.94L8.335 5.535C8.22421 5.5161 8.11231 5.50441 8 5.5C7.50555 5.5 7.0222 5.64662 6.61108 5.92133C6.19995 6.19603 5.87952 6.58648 5.6903 7.04329C5.50108 7.50011 5.45157 8.00277 5.54804 8.48773C5.6445 8.97268 5.8826 9.41814 6.23223 9.76777C6.58187 10.1174 7.02732 10.3555 7.51228 10.452C7.99723 10.5484 8.4999 10.4989 8.95671 10.3097C9.41353 10.1205 9.80397 9.80005 10.0787 9.38893C10.3534 8.9778 10.5 8.49445 10.5 8C10.496 7.88435 10.4843 7.76909 10.465 7.655L9.06 9.06C8.931 9.19092 8.77829 9.29612 8.61 9.37H8.58C8.50769 9.40243 8.43231 9.42755 8.355 9.445H8.3C8.10204 9.48541 7.89796 9.48541 7.7 9.445H7.645C7.56769 9.42755 7.49232 9.40243 7.42 9.37H7.395C7.05372 9.21904 6.78096 8.94628 6.63 8.605C6.62733 8.59688 6.62733 8.58812 6.63 8.58C6.59757 8.50768 6.57245 8.43231 6.555 8.355V8.3C6.51459 8.10204 6.51459 7.89796 6.555 7.7L6.545 7.645Z" fill="#4A4A4A"/>
<path d="M9.935 3.94501C9.33233 3.65118 8.67048 3.49897 8 3.50001C7.10999 3.50001 6.23996 3.76393 5.49994 4.25839C4.75991 4.75286 4.18314 5.45566 3.84254 6.27793C3.50195 7.1002 3.41283 8.005 3.58647 8.87791C3.7601 9.75083 4.18868 10.5526 4.81802 11.182C5.44736 11.8113 6.24918 12.2399 7.1221 12.4135C7.99501 12.5872 8.89981 12.4981 9.72208 12.1575C10.5443 11.8169 11.2471 11.2401 11.7416 10.5001C12.2361 9.76005 12.5 8.89002 12.5 8.00001C12.501 7.32952 12.3488 6.66768 12.055 6.06501L11.295 6.83001C11.5612 7.57851 11.5648 8.39529 11.3053 9.14612C11.0457 9.89695 10.5385 10.5372 9.86692 10.9615C9.19534 11.3859 8.39937 11.5691 7.60984 11.4812C6.8203 11.3932 6.08417 11.0393 5.52243 10.4776C4.9607 9.91583 4.60677 9.17971 4.51882 8.39017C4.43087 7.60064 4.61414 6.80467 5.0385 6.13309C5.46286 5.46151 6.10306 4.95427 6.85389 4.69474C7.60472 4.43521 8.4215 4.43883 9.17 4.70501L9.935 3.94501Z" fill="#4A4A4A"/>
<path d="M13.56 5.56002C13.4168 5.70072 13.2467 5.81124 13.06 5.88502C13.3472 6.55331 13.4969 7.27262 13.5 8.00002C13.5 9.08782 13.1774 10.1512 12.5731 11.0557C11.9687 11.9601 11.1098 12.6651 10.1048 13.0814C9.09977 13.4976 7.9939 13.6066 6.92701 13.3943C5.86011 13.1821 4.8801 12.6583 4.11092 11.8891C3.34173 11.1199 2.8179 10.1399 2.60568 9.07302C2.39347 8.00612 2.50238 6.90025 2.91867 5.89526C3.33495 4.89027 4.0399 4.03128 4.94437 3.42694C5.84884 2.82259 6.91221 2.50002 8 2.50002C8.72637 2.4984 9.44564 2.64293 10.115 2.92502C10.1888 2.73828 10.2993 2.56825 10.44 2.42502L10.755 2.10502C9.89277 1.70193 8.9518 1.49529 8 1.50002C6.71442 1.50002 5.45772 1.88124 4.3888 2.59547C3.31988 3.30969 2.48676 4.32486 1.99479 5.51258C1.50282 6.7003 1.37409 8.00723 1.6249 9.26811C1.8757 10.529 2.49477 11.6872 3.40381 12.5962C4.31285 13.5053 5.47104 14.1243 6.73192 14.3751C7.99279 14.6259 9.29973 14.4972 10.4874 14.0052C11.6752 13.5133 12.6903 12.6801 13.4046 11.6112C14.1188 10.5423 14.5 9.2856 14.5 8.00002C14.5 7.04709 14.2883 6.10606 13.88 5.24502L13.56 5.56002Z" fill="#4A4A4A"/>
</svg>
