<svg width="24" height="24" viewBox="0 0 24 24" fill="none" xmlns="http://www.w3.org/2000/svg">
<path d="M11 2C9.67392 2 8.40215 2.52678 7.46447 3.46447C6.52678 4.40215 6 5.67392 6 7C6 8.32608 6.52678 9.59785 7.46447 10.5355C8.40215 11.4732 9.67392 12 11 12C12.3261 12 13.5979 11.4732 14.5355 10.5355C15.4732 9.59785 16 8.32608 16 7C16 5.67392 15.4732 4.40215 14.5355 3.46447C13.5979 2.52678 12.3261 2 11 2ZM11.123 14.55C11.2197 14.394 11.2717 14.2144 11.2731 14.0308C11.2745 13.8472 11.2254 13.6668 11.1311 13.5093C11.0368 13.3518 10.901 13.2233 10.7385 13.1379C10.5761 13.0525 10.3932 13.0134 10.21 13.025C8 13.165 6.015 13.883 4.559 14.838C3.831 15.316 3.211 15.869 2.763 16.468C2.32 17.057 2 17.755 2 18.5C2 20.035 3.278 20.846 4.495 21.263C5.775 21.702 7.485 21.901 9.327 21.97C9.4863 21.9761 9.64475 21.944 9.78914 21.8764C9.93352 21.8088 10.0597 21.7077 10.157 21.5815C10.2544 21.4552 10.3202 21.3076 10.3489 21.1508C10.3776 20.9939 10.3683 20.8325 10.322 20.68C10.1079 19.9732 9.99938 19.2386 10 18.5C9.99743 17.1042 10.3865 15.7357 11.123 14.55ZM17.411 20.782C17.1374 20.8031 16.8626 20.8031 16.589 20.782L16.502 21.107C16.4333 21.3632 16.2657 21.5816 16.0359 21.7142C15.8062 21.8468 15.5332 21.8827 15.277 21.814C15.0208 21.7453 14.8024 21.5777 14.6698 21.3479C14.5372 21.1182 14.5013 20.8452 14.57 20.589L14.66 20.252C14.42 20.132 14.187 19.992 13.967 19.832L13.707 20.091C13.5184 20.2732 13.2658 20.374 13.0036 20.3717C12.7414 20.3694 12.4906 20.2642 12.3052 20.0788C12.1198 19.8934 12.0146 19.6426 12.0123 19.3804C12.01 19.1182 12.1108 18.8656 12.293 18.677L12.623 18.346C12.4026 17.9677 12.229 17.5641 12.106 17.144C12.0307 16.8897 12.0595 16.6158 12.1861 16.3827C12.3127 16.1496 12.5267 15.9763 12.781 15.901C13.0353 15.8257 13.3092 15.8545 13.5423 15.9811C13.7754 16.1077 13.9487 16.3217 14.024 16.576C14.902 19.539 19.098 19.539 19.976 16.576C20.0133 16.4501 20.075 16.3327 20.1577 16.2306C20.2403 16.1285 20.3423 16.0437 20.4577 15.9811C20.5731 15.9184 20.6998 15.8791 20.8304 15.8653C20.961 15.8516 21.0931 15.8637 21.219 15.901C21.3449 15.9383 21.4623 16 21.5644 16.0827C21.6665 16.1653 21.7513 16.2673 21.8139 16.3827C21.8766 16.4981 21.9159 16.6248 21.9297 16.7554C21.9434 16.886 21.9313 17.0181 21.894 17.144C21.764 17.584 21.588 17.985 21.376 18.346L21.707 18.676C21.8946 18.8635 22.0001 19.1179 22.0002 19.3831C22.0003 19.6484 21.895 19.9029 21.7075 20.0905C21.52 20.2781 21.2656 20.3836 21.0004 20.3837C20.7351 20.3838 20.4806 20.2785 20.293 20.091L20.033 19.831C19.813 19.991 19.58 20.131 19.34 20.252L19.43 20.589C19.4987 20.8452 19.4628 21.1182 19.3302 21.3479C19.1976 21.5777 18.9792 21.7453 18.723 21.814C18.4668 21.8827 18.1938 21.8468 17.9641 21.7142C17.7343 21.5816 17.5667 21.3632 17.498 21.107L17.411 20.782Z" fill="black"/>
</svg>
