<svg width="32" height="32" viewBox="0 0 32 32" fill="none" xmlns="http://www.w3.org/2000/svg">
<g clip-path="url(#clip0_523_292)">
<path d="M15 6C13.6739 6 12.4021 6.52678 11.4645 7.46447C10.5268 8.40215 10 9.67392 10 11C10 12.3261 10.5268 13.5979 11.4645 14.5355C12.4021 15.4732 13.6739 16 15 16C16.3261 16 17.5979 15.4732 18.5355 14.5355C19.4732 13.5979 20 12.3261 20 11C20 9.67392 19.4732 8.40215 18.5355 7.46447C17.5979 6.52678 16.3261 6 15 6ZM15.123 18.55C15.2197 18.394 15.2717 18.2144 15.2731 18.0308C15.2745 17.8472 15.2254 17.6668 15.1311 17.5093C15.0368 17.3518 14.901 17.2233 14.7385 17.1379C14.5761 17.0525 14.3932 17.0134 14.21 17.025C12 17.165 10.015 17.883 8.559 18.838C7.831 19.316 7.211 19.869 6.763 20.468C6.32 21.057 6 21.755 6 22.5C6 24.035 7.278 24.846 8.495 25.263C9.775 25.702 11.485 25.901 13.327 25.97C13.4863 25.9761 13.6448 25.944 13.7891 25.8764C13.9335 25.8088 14.0597 25.7077 14.157 25.5815C14.2544 25.4552 14.3202 25.3076 14.3489 25.1508C14.3776 24.9939 14.3683 24.8325 14.322 24.68C14.1079 23.9732 13.9994 23.2386 14 22.5C13.9974 21.1042 14.3865 19.7357 15.123 18.55ZM21.411 24.782C21.1374 24.8031 20.8626 24.8031 20.589 24.782L20.502 25.107C20.4333 25.3632 20.2657 25.5816 20.0359 25.7142C19.8062 25.8468 19.5332 25.8827 19.277 25.814C19.0208 25.7453 18.8024 25.5777 18.6698 25.3479C18.5372 25.1182 18.5013 24.8452 18.57 24.589L18.66 24.252C18.42 24.132 18.187 23.992 17.967 23.832L17.707 24.091C17.5184 24.2732 17.2658 24.374 17.0036 24.3717C16.7414 24.3694 16.4906 24.2642 16.3052 24.0788C16.1198 23.8934 16.0146 23.6426 16.0123 23.3804C16.01 23.1182 16.1108 22.8656 16.293 22.677L16.623 22.346C16.4026 21.9677 16.229 21.5641 16.106 21.144C16.0307 20.8897 16.0595 20.6158 16.1861 20.3827C16.3127 20.1496 16.5267 19.9763 16.781 19.901C17.0353 19.8257 17.3092 19.8545 17.5423 19.9811C17.7754 20.1077 17.9487 20.3217 18.024 20.576C18.902 23.539 23.098 23.539 23.976 20.576C24.0133 20.4501 24.075 20.3327 24.1577 20.2306C24.2403 20.1285 24.3423 20.0437 24.4577 19.9811C24.5731 19.9184 24.6998 19.8791 24.8304 19.8653C24.961 19.8516 25.0931 19.8637 25.219 19.901C25.3449 19.9383 25.4623 20 25.5644 20.0827C25.6665 20.1653 25.7513 20.2673 25.8139 20.3827C25.8766 20.4981 25.9159 20.6248 25.9297 20.7554C25.9434 20.886 25.9313 21.0181 25.894 21.144C25.764 21.584 25.588 21.985 25.376 22.346L25.707 22.676C25.8946 22.8635 26.0001 23.1179 26.0002 23.3831C26.0003 23.6484 25.895 23.9029 25.7075 24.0905C25.52 24.2781 25.2656 24.3836 25.0004 24.3837C24.7351 24.3838 24.4806 24.2785 24.293 24.091L24.033 23.831C23.813 23.991 23.58 24.131 23.34 24.252L23.43 24.589C23.4987 24.8452 23.4628 25.1182 23.3302 25.3479C23.1976 25.5777 22.9792 25.7453 22.723 25.814C22.4668 25.8827 22.1938 25.8468 21.9641 25.7142C21.7343 25.5816 21.5667 25.3632 21.498 25.107L21.411 24.782Z" fill="black"/>
</g>
<defs>
<clipPath id="clip0_523_292">
<rect width="24" height="24" fill="white" transform="translate(4 4)"/>
</clipPath>
</defs>
</svg>
