<svg width="24" height="24" viewBox="0 0 24 24" fill="none" xmlns="http://www.w3.org/2000/svg">
<path d="M2.99981 13.0004H3.99983V20.0006C3.99983 21.1036 4.89685 22.0006 5.99987 22.0006H18.0001C19.1032 22.0006 20.0002 21.1036 20.0002 20.0006V13.0004H21.0002C21.1979 13.0004 21.3912 12.9417 21.5557 12.8318C21.7201 12.7219 21.8482 12.5658 21.9239 12.3831C21.9996 12.2004 22.0194 11.9993 21.9808 11.8054C21.9422 11.6114 21.847 11.4333 21.7072 11.2934L12.707 2.29321C12.6142 2.20026 12.504 2.12652 12.3827 2.07621C12.2614 2.0259 12.1313 2 12 2C11.8687 2 11.7386 2.0259 11.6173 2.07621C11.496 2.12652 11.3858 2.20026 11.293 2.29321L2.29279 11.2934C2.15298 11.4333 2.05777 11.6114 2.0192 11.8054C1.98064 11.9993 2.00044 12.2004 2.07611 12.3831C2.15178 12.5658 2.27992 12.7219 2.44434 12.8318C2.60875 12.9417 2.80205 13.0004 2.99981 13.0004ZM9.99996 20.0006V15.0005H14V20.0006H9.99996ZM12 4.41425L18.0001 10.4144V15.0005L18.0011 20.0006H16.0001V15.0005C16.0001 13.8975 15.1031 13.0004 14 13.0004H9.99996C8.89693 13.0004 7.99991 13.8975 7.99991 15.0005V20.0006H5.99987V10.4144L12 4.41425Z" fill="#4A4A4A"/>
</svg>
