<svg width="30" height="30" viewBox="0 0 30 30" fill="none" xmlns="http://www.w3.org/2000/svg">
<path d="M22.999 7H6.99899C5.89599 7 4.99899 7.897 4.99899 9V21C4.99899 22.103 5.89599 23 6.99899 23H22.999C24.102 23 24.999 22.103 24.999 21V9C24.999 7.897 24.102 7 22.999 7ZM9.49899 10C9.89682 10 10.2783 10.158 10.5597 10.4393C10.841 10.7206 10.999 11.1022 10.999 11.5C10.999 11.8978 10.841 12.2794 10.5597 12.5607C10.2783 12.842 9.89682 13 9.49899 13C9.10117 13 8.71964 12.842 8.43833 12.5607C8.15703 12.2794 7.99899 11.8978 7.99899 11.5C7.99899 11.1022 8.15703 10.7206 8.43833 10.4393C8.71964 10.158 9.10117 10 9.49899 10ZM14.999 20H7.99899L11.999 15L13.499 17L16.499 13L21.999 20H14.999Z" fill="black"/>
</svg>
