<svg width="24" height="24" viewBox="0 0 24 24" fill="none" xmlns="http://www.w3.org/2000/svg">
<path d="M2.58 19.011L2.56 19.031C2.29 18.441 2.12 17.771 2.05 17.031C2.12 17.761 2.31 18.421 2.58 19.011ZM9.001 10.381C9.63222 10.381 10.2376 10.1303 10.6839 9.68392C11.1303 9.23758 11.381 8.63222 11.381 8.001C11.381 7.36979 11.1303 6.76442 10.6839 6.31809C10.2376 5.87175 9.63222 5.621 9.001 5.621C8.36979 5.621 7.76442 5.87175 7.31809 6.31809C6.87175 6.76442 6.621 7.36979 6.621 8.001C6.621 8.63222 6.87175 9.23758 7.31809 9.68392C7.76442 10.1303 8.36979 10.381 9.001 10.381Z" fill="black"/>
<path d="M16.19 2H7.81C4.17 2 2 4.17 2 7.81V16.19C2 17.28 2.19 18.23 2.56 19.03C3.42 20.93 5.26 22 7.81 22H16.19C19.83 22 22 19.83 22 16.19V7.81C22 4.17 19.83 2 16.19 2ZM20.37 12.5C19.59 11.83 18.33 11.83 17.55 12.5L13.39 16.07C12.61 16.74 11.35 16.74 10.57 16.07L10.23 15.79C9.52 15.17 8.39 15.11 7.59 15.65L3.85 18.16C3.63 17.6 3.5 16.95 3.5 16.19V7.81C3.5 4.99 4.99 3.5 7.81 3.5H16.19C19.01 3.5 20.5 4.99 20.5 7.81V12.61L20.37 12.5Z" fill="black"/>
</svg>
