<svg width="24" height="24" viewBox="0 0 24 24" fill="none" xmlns="http://www.w3.org/2000/svg">
<path fill-rule="evenodd" clip-rule="evenodd" d="M13.395 1.32436C12.9609 1.11097 12.4837 1 12 1C11.5163 1 11.0391 1.11097 10.605 1.32436L1.85299 5.63436C0.715994 6.19436 0.715994 7.80736 1.85299 8.36736L10.605 12.6764C11.039 12.8898 11.5163 13.0008 12 13.0008C12.4837 13.0008 12.9609 12.8898 13.395 12.6764L22.147 8.36636C23.284 7.80636 23.284 6.19336 22.147 5.63336L13.395 1.32436ZM1.90299 10.6104C1.97174 10.5765 2.04735 10.5589 2.12399 10.5589C2.20063 10.5589 2.27625 10.5765 2.34499 10.6104L10.605 14.6774C11.0391 14.8907 11.5163 15.0017 12 15.0017C12.4837 15.0017 12.9609 14.8907 13.395 14.6774L21.655 10.6104C21.7237 10.5765 21.7994 10.5589 21.876 10.5589C21.9526 10.5589 22.0282 10.5765 22.097 10.6104L22.147 10.6344C23.284 11.1944 23.284 12.8084 22.147 13.3674L13.395 17.6774C12.9609 17.8907 12.4837 18.0017 12 18.0017C11.5163 18.0017 11.0391 17.8907 10.605 17.6774L1.85299 13.3674C0.715994 12.8074 0.715994 11.1944 1.85299 10.6344L1.90299 10.6104ZM2.34499 15.6104C2.27625 15.5765 2.20063 15.5589 2.12399 15.5589C2.04735 15.5589 1.97174 15.5765 1.90299 15.6104L1.85299 15.6354C0.715994 16.1954 0.715994 17.8084 1.85299 18.3684L10.605 22.6774C11.0391 22.8907 11.5163 23.0017 12 23.0017C12.4837 23.0017 12.9609 22.8907 13.395 22.6774L22.147 18.3674C23.284 17.8074 23.284 16.1944 22.147 15.6344L22.097 15.6104C22.0282 15.5765 21.9526 15.5589 21.876 15.5589C21.7994 15.5589 21.7237 15.5765 21.655 15.6104L13.395 19.6774C12.9609 19.8907 12.4837 20.0017 12 20.0017C11.5163 20.0017 11.0391 19.8907 10.605 19.6774L2.34499 15.6104Z" fill="black"/>
</svg>
