<svg width="24" height="24" viewBox="0 0 24 24" fill="none" xmlns="http://www.w3.org/2000/svg">
<path d="M20.89 5.179V16.479C20.89 18.459 19.28 20.069 17.3 20.069C16.3487 20.0664 15.4371 19.6873 14.7644 19.0146C14.0917 18.3419 13.7126 17.4303 13.71 16.479C13.71 14.509 15.33 12.899 17.3 12.899C18.14 12.899 18.89 13.189 19.5 13.669V7.719L10.29 10.339V18.409C10.2874 19.3603 9.90828 20.2719 9.2356 20.9446C8.56292 21.6173 7.65132 21.9964 6.7 21.999C4.72 21.999 3.11 20.389 3.11 18.409C3.11 16.439 4.72 14.829 6.7 14.829C7.53 14.829 8.28 15.119 8.89 15.589V6.749C8.89 5.279 9.78 4.139 11.19 3.759L16.97 2.179C18.14 1.859 19.13 1.969 19.83 2.509C20.54 3.039 20.89 3.939 20.89 5.179Z" fill="black"/>
</svg>
