<svg width="24" height="24" viewBox="0 0 24 24" fill="none" xmlns="http://www.w3.org/2000/svg">
<path d="M8 18V5.71599C7.99994 5.2382 8.17094 4.77617 8.48203 4.41353C8.79312 4.0509 9.22376 3.81161 9.696 3.73899L18.696 2.35399C18.981 2.31016 19.2721 2.32848 19.5494 2.40769C19.8267 2.48691 20.0836 2.62515 20.3024 2.81293C20.5212 3.00072 20.6969 3.23361 20.8173 3.49563C20.9377 3.75766 21 4.04262 21 4.33099V16" stroke="#323232" stroke-width="2" stroke-linecap="round" stroke-linejoin="round"/>
<path d="M8 9L21 7" stroke="#323232" stroke-width="2"/>
<path d="M8 18C8 18.7956 7.68393 19.5587 7.12132 20.1213C6.55871 20.6839 5.79565 21 5 21C4.20435 21 3.44129 20.6839 2.87868 20.1213C2.31607 19.5587 2 18.7956 2 18C2 16.343 3.343 16 5 16C6.657 16 8 16.343 8 18ZM21 16C21 16.7956 20.6839 17.5587 20.1213 18.1213C19.5587 18.6839 18.7956 19 18 19C17.2044 19 16.4413 18.6839 15.8787 18.1213C15.3161 17.5587 15 16.7956 15 16C15 14.343 16.343 14 18 14C19.657 14 21 14.343 21 16Z" stroke="#323232" stroke-width="2" stroke-linecap="round" stroke-linejoin="round"/>
</svg>
