<svg width="24" height="24" viewBox="0 0 24 24" fill="none" xmlns="http://www.w3.org/2000/svg">
<path d="M12 22C10.6333 22 9.34167 21.7373 8.125 21.212C6.90833 20.6867 5.84567 19.97 4.937 19.062C4.029 18.154 3.31233 17.0917 2.787 15.875C2.26167 14.6583 1.99933 13.3667 2 12C2 10.6167 2.271 9.31667 2.813 8.1C3.355 6.88333 4.08833 5.825 5.013 4.925C5.93767 4.025 7.01667 3.31267 8.25 2.788C9.48333 2.26333 10.8 2.00067 12.2 2C13.5333 2 14.7917 2.22933 15.975 2.688C17.1583 3.14667 18.196 3.78 19.088 4.588C19.9793 5.396 20.6877 6.35433 21.213 7.463C21.7383 8.57167 22.0007 9.76733 22 11.05C22 12.9667 21.4167 14.4377 20.25 15.463C19.0833 16.4883 17.6667 17.0007 16 17H14.15C14 17 13.8957 17.0417 13.837 17.125C13.7783 17.2083 13.7493 17.3 13.75 17.4C13.75 17.6 13.875 17.8877 14.125 18.263C14.375 18.6383 14.5 19.0673 14.5 19.55C14.5 20.3833 14.2707 21 13.812 21.4C13.3533 21.8 12.7493 22 12 22ZM6.5 13C6.93333 13 7.29167 12.8583 7.575 12.575C7.85833 12.2917 8 11.9333 8 11.5C8 11.0667 7.85833 10.7083 7.575 10.425C7.29167 10.1417 6.93333 10 6.5 10C6.06667 10 5.70833 10.1417 5.425 10.425C5.14167 10.7083 5 11.0667 5 11.5C5 11.9333 5.14167 12.2917 5.425 12.575C5.70833 12.8583 6.06667 13 6.5 13ZM9.5 9C9.93333 9 10.2917 8.85833 10.575 8.575C10.8583 8.29167 11 7.93333 11 7.5C11 7.06667 10.8583 6.70833 10.575 6.425C10.2917 6.14167 9.93333 6 9.5 6C9.06667 6 8.70833 6.14167 8.425 6.425C8.14167 6.70833 8 7.06667 8 7.5C8 7.93333 8.14167 8.29167 8.425 8.575C8.70833 8.85833 9.06667 9 9.5 9ZM14.5 9C14.9333 9 15.2917 8.85833 15.575 8.575C15.8583 8.29167 16 7.93333 16 7.5C16 7.06667 15.8583 6.70833 15.575 6.425C15.2917 6.14167 14.9333 6 14.5 6C14.0667 6 13.7083 6.14167 13.425 6.425C13.1417 6.70833 13 7.06667 13 7.5C13 7.93333 13.1417 8.29167 13.425 8.575C13.7083 8.85833 14.0667 9 14.5 9ZM17.5 13C17.9333 13 18.2917 12.8583 18.575 12.575C18.8583 12.2917 19 11.9333 19 11.5C19 11.0667 18.8583 10.7083 18.575 10.425C18.2917 10.1417 17.9333 10 17.5 10C17.0667 10 16.7083 10.1417 16.425 10.425C16.1417 10.7083 16 11.0667 16 11.5C16 11.9333 16.1417 12.2917 16.425 12.575C16.7083 12.8583 17.0667 13 17.5 13Z" fill="black"/>
</svg>
