<svg width="12" height="12" viewBox="0 0 12 12" fill="none" xmlns="http://www.w3.org/2000/svg">
<g clip-path="url(#clip0_14_329)">
<path d="M8.35954 9.876L8.03954 7.314C7.99419 6.95111 7.81783 6.61729 7.54363 6.37531C7.26942 6.13333 6.91625 5.99986 6.55054 6H5.44854C5.083 6.0001 4.73008 6.13368 4.45608 6.37564C4.18209 6.6176 4.00587 6.95128 3.96054 7.314L3.64004 9.876C3.62245 10.0168 3.63501 10.1596 3.67688 10.2952C3.71875 10.4307 3.78898 10.5558 3.8829 10.6621C3.97681 10.7684 4.09227 10.8535 4.22161 10.9118C4.35094 10.97 4.49119 11.0001 4.63304 11H7.36704C7.50885 11 7.64904 10.9699 7.77832 10.9116C7.90759 10.8533 8.02299 10.7682 8.11685 10.6619C8.21072 10.5556 8.2809 10.4306 8.32274 10.2951C8.36458 10.1596 8.37713 10.0167 8.35954 9.876V9.876Z" stroke="#7589F9" stroke-linecap="round" stroke-linejoin="round"/>
<path d="M6 4C6.82843 4 7.5 3.32843 7.5 2.5C7.5 1.67157 6.82843 1 6 1C5.17157 1 4.5 1.67157 4.5 2.5C4.5 3.32843 5.17157 4 6 4Z" stroke="#7589F9"/>
<path d="M2 5.5C2.55228 5.5 3 5.05228 3 4.5C3 3.94772 2.55228 3.5 2 3.5C1.44772 3.5 1 3.94772 1 4.5C1 5.05228 1.44772 5.5 2 5.5Z" stroke="#7589F9"/>
<path d="M10 5.5C10.5523 5.5 11 5.05228 11 4.5C11 3.94772 10.5523 3.5 10 3.5C9.44772 3.5 9 3.94772 9 4.5C9 5.05228 9.44772 5.5 10 5.5Z" stroke="#7589F9"/>
<path d="M2.00004 7H1.84704C1.61032 6.99997 1.38127 7.08392 1.20063 7.23691C1.01999 7.3899 0.899483 7.60201 0.860543 7.8355L0.694043 8.8355C0.670149 8.97877 0.677753 9.12553 0.716327 9.26557C0.754901 9.4056 0.823519 9.53555 0.917407 9.64638C1.01129 9.75721 1.1282 9.84626 1.25999 9.90732C1.39178 9.96839 1.53529 10 1.68054 10H3.50004M10 7H10.153C10.3898 6.99997 10.6188 7.08392 10.7995 7.23691C10.9801 7.3899 11.1006 7.60201 11.1395 7.8355L11.306 8.8355C11.3299 8.97877 11.3223 9.12553 11.2838 9.26557C11.2452 9.4056 11.1766 9.53555 11.0827 9.64638C10.9888 9.75721 10.8719 9.84626 10.7401 9.90732C10.6083 9.96839 10.4648 10 10.3195 10H8.50004" stroke="#7589F9" stroke-linecap="round" stroke-linejoin="round"/>
</g>
<defs>
<clipPath id="clip0_14_329">
<rect width="12" height="12" fill="white"/>
</clipPath>
</defs>
</svg>
