<svg width="24" height="24" viewBox="0 0 24 24" fill="none" xmlns="http://www.w3.org/2000/svg">
<path d="M12.2 3.66669C10.0167 3.66669 8.24167 5.44169 8.24167 7.62502C8.24167 9.76669 9.91667 11.5 12.1 11.575C12.1667 11.5667 12.2333 11.5667 12.2833 11.575H12.3417C13.3661 11.5408 14.3371 11.1096 15.0494 10.3724C15.7617 9.6353 16.1593 8.65005 16.1583 7.62502C16.1583 5.44169 14.3833 3.66669 12.2 3.66669ZM16.4333 13.7909C14.1083 12.2409 10.3167 12.2409 7.975 13.7909C6.91667 14.4992 6.33333 15.4575 6.33333 16.4825C6.33333 17.5075 6.91667 18.4575 7.96667 19.1575C9.13333 19.9409 10.6667 20.3325 12.2 20.3325C13.7333 20.3325 15.2667 19.9409 16.4333 19.1575C17.4833 18.4492 18.0667 17.4992 18.0667 16.4659C18.0583 15.4409 17.4833 14.4909 16.4333 13.7909ZM21.3583 8.11502C21.4917 9.73169 20.3417 11.1484 18.75 11.34H18.7083C18.6583 11.34 18.6083 11.34 18.5667 11.3567C17.7583 11.3984 17.0167 11.14 16.4583 10.665C17.3167 9.89835 17.8083 8.74835 17.7083 7.49835C17.6512 6.84836 17.4304 6.2234 17.0667 5.68169C17.5033 5.46925 17.9851 5.36624 18.4705 5.38154C18.9558 5.39683 19.4301 5.52998 19.8526 5.76948C20.275 6.00899 20.6328 6.34766 20.8951 6.75629C21.1574 7.16493 21.3164 7.63124 21.3583 8.11502Z" fill="black"/>
<path d="M23.0233 15.825C22.9567 16.6334 22.44 17.3334 21.5733 17.8084C20.74 18.2667 19.69 18.4834 18.6483 18.4584C19.2483 17.9167 19.5983 17.2417 19.665 16.525C19.7483 15.4917 19.2567 14.5 18.2733 13.7084C17.715 13.2667 17.065 12.9167 16.3567 12.6584C18.1983 12.125 20.515 12.4834 21.94 13.6334C22.7067 14.25 23.0983 15.025 23.0233 15.825Z" fill="black"/>
<path d="M12.1472 3.66669C14.3254 3.66669 16.0962 5.44178 16.0962 7.62522C16.0962 9.76699 14.4251 11.5004 12.247 11.5754C12.1804 11.5671 12.1139 11.5671 12.0641 11.5754H12.0059C10.9838 11.5412 10.0151 11.11 9.30451 10.3728C8.59393 9.6356 8.1972 8.6503 8.1982 7.62522C8.1982 5.44178 9.96901 3.66669 12.1472 3.66669ZM7.92385 13.7914C10.2434 12.2413 14.0261 12.2413 16.3622 13.7914C17.418 14.4997 18 15.4581 18 16.4832C18 17.5082 17.418 18.4583 16.3705 19.1583C15.2066 19.9417 13.6769 20.3334 12.1472 20.3334C10.6175 20.3334 9.08776 19.9417 7.92385 19.1583C6.87633 18.4499 6.29438 17.4999 6.29438 16.4665C6.30269 15.4414 6.87633 14.4914 7.92385 13.7914ZM3.01049 8.11524C2.87747 9.73199 4.02475 11.1487 5.61266 11.3404H5.65423C5.70411 11.3404 5.75399 11.3404 5.79556 11.3571C6.60198 11.3987 7.3419 11.1404 7.89891 10.6654C7.04261 9.89866 6.5521 8.74861 6.65186 7.49855C6.70891 6.84852 6.92913 6.22353 7.29202 5.68179C6.85639 5.46934 6.37575 5.36633 5.89154 5.38162C5.40734 5.39692 4.93412 5.53007 4.5127 5.76959C4.09128 6.0091 3.73432 6.3478 3.47261 6.75645C3.2109 7.1651 3.0523 7.63144 3.01049 8.11524Z" fill="black"/>
<path d="M1.34241 15.7599C1.40899 16.6515 1.92495 17.4236 2.79044 17.9476C3.62264 18.4531 4.6712 18.6921 5.71145 18.6645C5.11227 18.0671 4.76275 17.3225 4.69617 16.532C4.61295 15.3922 5.10395 14.2984 6.08594 13.4251C6.64352 12.9379 7.29263 12.5519 8 12.2669C6.16084 11.6786 3.84733 12.0739 2.42427 13.3424C1.65865 14.0226 1.26751 14.8774 1.34241 15.7599Z" fill="black"/>
</svg>
