<svg width="32" height="32" viewBox="0 0 32 32" fill="none" xmlns="http://www.w3.org/2000/svg">
<g clip-path="url(#clip0_523_292)">
<path d="M16 17C18.396 17 20.575 17.694 22.178 18.671C22.978 19.161 23.662 19.736 24.156 20.361C24.642 20.977 25 21.713 25 22.5C25 23.345 24.589 24.011 23.997 24.486C23.437 24.936 22.698 25.234 21.913 25.442C20.335 25.859 18.229 26 16 26C13.771 26 11.665 25.86 10.087 25.442C9.302 25.234 8.563 24.936 8.003 24.486C7.41 24.01 7 23.345 7 22.5C7 21.713 7.358 20.977 7.844 20.361C8.338 19.736 9.021 19.161 9.822 18.671C11.425 17.694 13.605 17 16 17ZM16 6C17.3261 6 18.5979 6.52678 19.5355 7.46447C20.4732 8.40215 21 9.67392 21 11C21 12.3261 20.4732 13.5979 19.5355 14.5355C18.5979 15.4732 17.3261 16 16 16C14.6739 16 13.4021 15.4732 12.4645 14.5355C11.5268 13.5979 11 12.3261 11 11C11 9.67392 11.5268 8.40215 12.4645 7.46447C13.4021 6.52678 14.6739 6 16 6Z" fill="black"/>
</g>
<defs>
<clipPath id="clip0_523_292">
<rect width="24" height="24" fill="white" transform="translate(4 4)"/>
</clipPath>
</defs>
</svg>
