<svg width="24" height="24" viewBox="0 0 24 24" fill="none" xmlns="http://www.w3.org/2000/svg">
<path d="M12 2C9.38 2 7.25 4.13 7.25 6.75C7.25 9.32 9.26 11.4 11.88 11.49C11.96 11.48 12.04 11.48 12.1 11.49H12.17C13.3994 11.449 14.5646 10.9315 15.4193 10.0469C16.274 9.16234 16.7512 7.98004 16.75 6.75C16.75 4.13 14.62 2 12 2ZM17.08 14.149C14.29 12.289 9.74 12.289 6.93 14.149C5.66 14.999 4.96 16.149 4.96 17.379C4.96 18.609 5.66 19.749 6.92 20.589C8.32 21.529 10.16 21.999 12 21.999C13.84 21.999 15.68 21.529 17.08 20.589C18.34 19.739 19.04 18.599 19.04 17.359C19.03 16.129 18.34 14.989 17.08 14.149Z" fill="black"/>
</svg>
