<svg width="32" height="32" viewBox="0 0 32 32" fill="none" xmlns="http://www.w3.org/2000/svg">
<g clip-path="url(#clip0_505_296)">
<path d="M19.113 7.21001L19.207 7.29301L24.707 12.793C24.8756 12.9625 24.9779 13.1867 24.9953 13.4251C25.0128 13.6635 24.9443 13.9003 24.8022 14.0926C24.6602 14.2848 24.454 14.4198 24.2209 14.4731C23.9879 14.5264 23.7435 14.4944 23.532 14.383L20.36 17.554L18.936 21.351C18.8985 21.4512 18.8452 21.5447 18.778 21.628L18.708 21.708L17.208 23.208C17.0357 23.38 16.8065 23.4833 16.5635 23.4984C16.3205 23.5135 16.0803 23.4394 15.888 23.29L15.793 23.207L13 20.415L9.20701 24.207C9.02705 24.3864 8.78557 24.4905 8.53162 24.4982C8.27767 24.506 8.03029 24.4168 7.83973 24.2488C7.64916 24.0807 7.5297 23.8465 7.50561 23.5935C7.48151 23.3406 7.55459 23.088 7.71001 22.887L7.79301 22.793L11.585 19L8.79301 16.207C8.62083 16.0348 8.5174 15.8057 8.50212 15.5627C8.48684 15.3197 8.56076 15.0794 8.71001 14.887L8.79301 14.793L10.293 13.293C10.3685 13.2173 10.4556 13.1542 10.551 13.106L10.649 13.064L14.445 11.639L17.616 8.46901C17.5079 8.26684 17.4725 8.03366 17.5158 7.80851C17.5591 7.58337 17.6784 7.37994 17.8539 7.23231C18.0293 7.08467 18.2501 7.00179 18.4793 6.99755C18.7085 6.99331 18.9323 7.06896 19.113 7.21001Z" fill="black"/>
</g>
<defs>
<clipPath id="clip0_505_296">
<rect width="24" height="24" fill="white" transform="translate(4 4)"/>
</clipPath>
</defs>
</svg>
