<svg width="24" height="24" viewBox="0 0 24 24" fill="none" xmlns="http://www.w3.org/2000/svg">
<path d="M19.512 5.85L13.572 2.42C12.602 1.86 11.402 1.86 10.422 2.42L4.492 5.85C4.01377 6.12727 3.61693 6.52552 3.34135 7.00472C3.06576 7.48392 2.92114 8.02721 2.922 8.58V15.42C2.922 16.54 3.522 17.58 4.492 18.15L10.432 21.58C11.402 22.14 12.602 22.14 13.582 21.58L19.522 18.15C20.0002 17.8727 20.3971 17.4745 20.6727 16.9953C20.9482 16.5161 21.0929 15.9728 21.092 15.42V8.58C21.0877 8.02708 20.9397 7.48477 20.6628 7.0062C20.3858 6.52764 19.9893 6.12922 19.512 5.85ZM12.002 7.34C13.292 7.34 14.332 8.38 14.332 9.67C14.332 10.96 13.292 12 12.002 12C10.712 12 9.672 10.96 9.672 9.67C9.672 8.39 10.712 7.34 12.002 7.34ZM14.682 16.66H9.322C8.512 16.66 8.042 15.76 8.492 15.09C9.172 14.08 10.492 13.4 12.002 13.4C13.512 13.4 14.832 14.08 15.512 15.09C15.962 15.75 15.482 16.66 14.682 16.66Z" fill="black"/>
</svg>
