<svg width="24" height="24" viewBox="0 0 24 24" fill="none" xmlns="http://www.w3.org/2000/svg">
<path d="M7.23601 2.96401C7.40455 3.13276 7.49922 3.36151 7.49922 3.60001C7.49922 3.83851 7.40455 4.06726 7.23601 4.23601L5.77201 5.70001H13.2C14.6834 5.70001 16.1334 6.13988 17.3668 6.96399C18.6002 7.7881 19.5615 8.95944 20.1291 10.3299C20.6968 11.7003 20.8453 13.2083 20.5559 14.6632C20.2665 16.118 19.5522 17.4544 18.5033 18.5033C17.4544 19.5522 16.118 20.2665 14.6632 20.5559C13.2083 20.8453 11.7003 20.6968 10.3299 20.1291C8.95944 19.5615 7.7881 18.6002 6.96399 17.3668C6.13988 16.1334 5.70001 14.6834 5.70001 13.2C5.70001 12.9613 5.79483 12.7324 5.96362 12.5636C6.1324 12.3948 6.36132 12.3 6.60001 12.3C6.83871 12.3 7.06763 12.3948 7.23641 12.5636C7.40519 12.7324 7.50001 12.9613 7.50001 13.2C7.50001 14.3274 7.83431 15.4294 8.46064 16.3668C9.08696 17.3041 9.97718 18.0347 11.0187 18.4661C12.0603 18.8975 13.2063 19.0104 14.312 18.7905C15.4177 18.5706 16.4334 18.0277 17.2305 17.2305C18.0277 16.4334 18.5706 15.4177 18.7905 14.312C19.0104 13.2063 18.8975 12.0603 18.4661 11.0187C18.0347 9.97718 17.3041 9.08696 16.3668 8.46064C15.4294 7.83431 14.3274 7.50001 13.2 7.50001H5.77201L7.23601 8.96401C7.39499 9.13462 7.48154 9.36028 7.47742 9.59344C7.47331 9.8266 7.37886 10.0491 7.21396 10.214C7.04906 10.3789 6.8266 10.4733 6.59344 10.4774C6.36028 10.4815 6.13462 10.395 5.96401 10.236L2.96401 7.23601C2.79547 7.06726 2.70081 6.83851 2.70081 6.60001C2.70081 6.36151 2.79547 6.13276 2.96401 5.96401L5.96401 2.96401C6.13276 2.79547 6.36151 2.70081 6.60001 2.70081C6.83851 2.70081 7.06726 2.79547 7.23601 2.96401Z" fill="black"/>
</svg>
