<svg width="24" height="24" viewBox="0 0 24 24" fill="none" xmlns="http://www.w3.org/2000/svg">
<path d="M11.5 21.75C5.85 21.75 1.25 17.15 1.25 11.5C1.25 5.85 5.85 1.25 11.5 1.25C17.15 1.25 21.75 5.85 21.75 11.5C21.75 17.15 17.15 21.75 11.5 21.75ZM11.5 2.75C6.67 2.75 2.75 6.68 2.75 11.5C2.75 16.32 6.67 20.25 11.5 20.25C16.33 20.25 20.25 16.32 20.25 11.5C20.25 6.68 16.33 2.75 11.5 2.75ZM22 22.751C21.81 22.751 21.62 22.681 21.47 22.531L19.47 20.531C19.3305 20.3899 19.2523 20.1994 19.2523 20.001C19.2523 19.8026 19.3305 19.6121 19.47 19.471C19.76 19.181 20.24 19.181 20.53 19.471L22.53 21.471C22.82 21.761 22.82 22.241 22.53 22.531C22.38 22.681 22.19 22.751 22 22.751Z" fill="black"/>
</svg>
