<svg width="24" height="24" viewBox="0 0 24 24" fill="none" xmlns="http://www.w3.org/2000/svg">
<path d="M13.8768 22H10.1249C9.88979 22 9.66176 21.9221 9.4786 21.7792C9.29543 21.6362 9.16814 21.4368 9.11784 21.214L8.69832 19.33C8.13869 19.0921 7.60803 18.7946 7.11613 18.443L5.22265 19.028C4.99853 19.0973 4.7567 19.0902 4.53733 19.0078C4.31795 18.9254 4.13423 18.7727 4.01668 18.575L2.1366 15.424C2.02027 15.2261 1.97661 14.9958 2.01274 14.7708C2.04888 14.5457 2.16268 14.3392 2.33553 14.185L3.80434 12.885C3.73755 12.2961 3.73755 11.7019 3.80434 11.113L2.33553 9.816C2.16244 9.66177 2.04848 9.45507 2.01234 9.22978C1.97619 9.00449 2.02001 8.77397 2.1366 8.576L4.01255 5.423C4.13011 5.22532 4.31383 5.07259 4.5332 4.99019C4.75258 4.90778 4.9944 4.90066 5.21852 4.97L7.112 5.555C7.36351 5.375 7.62532 5.207 7.89537 5.055C8.15615 4.913 8.42414 4.784 8.69832 4.669L9.11887 2.787C9.16893 2.5642 9.29598 2.36469 9.47895 2.22155C9.66193 2.07841 9.88983 2.00024 10.1249 2H13.8768C14.1118 2.00024 14.3397 2.07841 14.5227 2.22155C14.7057 2.36469 14.8327 2.5642 14.8828 2.787L15.3075 4.67C15.8668 4.9079 16.3971 5.20539 16.8886 5.557L18.7831 4.972C19.0071 4.90292 19.2487 4.91017 19.4679 4.99256C19.687 5.07495 19.8706 5.22753 19.9881 5.425L21.864 8.578C22.1032 8.985 22.0207 9.5 21.6651 9.817L20.1963 11.117C20.2631 11.7059 20.2631 12.3001 20.1963 12.889L21.6651 14.189C22.0207 14.507 22.1032 15.021 21.864 15.428L19.9881 18.581C19.8705 18.7787 19.6868 18.9314 19.4674 19.0138C19.2481 19.0962 19.0062 19.1033 18.7821 19.034L16.8886 18.449C16.3971 18.8003 15.8668 19.0975 15.3075 19.335L14.8828 21.214C14.8325 21.4366 14.7054 21.6359 14.5224 21.7788C14.3395 21.9218 14.1117 21.9998 13.8768 22ZM7.48617 16.229L8.33138 16.829C8.52206 16.965 8.71997 17.09 8.92612 17.204C9.1199 17.313 9.3178 17.411 9.52292 17.5L10.4846 17.909L10.9557 20H13.0481L13.5191 17.908L14.4808 17.499C14.9003 17.319 15.2992 17.096 15.6693 16.833L16.5145 16.233L18.6192 16.883L19.6655 15.125L18.0338 13.682L18.1492 12.67C18.2008 12.227 18.2008 11.78 18.1492 11.338L18.0338 10.326L19.6665 8.88L18.6192 7.121L16.5155 7.771L15.6693 7.171C15.299 6.90669 14.9006 6.68173 14.4808 6.5L13.5191 6.091L13.0481 4H10.9557L10.4815 6.092L9.52292 6.5C9.10256 6.67861 8.70397 6.90198 8.33447 7.166L7.48823 7.766L5.38551 7.116L4.33724 8.88L5.96891 10.321L5.85346 11.334C5.80193 11.777 5.80193 12.224 5.85346 12.666L5.96891 13.678L4.33724 15.121L5.38344 16.879L7.48617 16.229ZM11.9967 16C10.9032 16 9.85453 15.5786 9.08132 14.8284C8.30811 14.0783 7.87373 13.0609 7.87373 12C7.87373 10.9391 8.30811 9.92172 9.08132 9.17157C9.85453 8.42143 10.9032 8 11.9967 8C13.0902 8 14.1389 8.42143 14.9121 9.17157C15.6853 9.92172 16.1197 10.9391 16.1197 12C16.1197 13.0609 15.6853 14.0783 14.9121 14.8284C14.1389 15.5786 13.0902 16 11.9967 16ZM11.9967 10C11.593 10.0004 11.1983 10.1158 10.8616 10.3318C10.5249 10.5479 10.261 10.855 10.1026 11.2153C9.94422 11.5755 9.89834 11.9729 9.97065 12.3583C10.043 12.7436 10.2303 13.0998 10.5094 13.3828C10.7885 13.6657 11.1471 13.863 11.5407 13.95C11.9343 14.037 12.3455 14.01 12.7234 13.8724C13.1014 13.7347 13.4293 13.4924 13.6666 13.1756C13.9039 12.8587 14.04 12.4812 14.0582 12.09V12.49V12C14.0582 11.4696 13.841 10.9609 13.4544 10.5858C13.0678 10.2107 12.5435 10 11.9967 10Z" fill="#959BA4"/>
</svg>
