<svg width="24" height="24" viewBox="0 0 24 24" fill="none" xmlns="http://www.w3.org/2000/svg">
<path d="M18.9 11.1C19.1174 11.1 19.3276 11.1788 19.4915 11.3217C19.6554 11.4647 19.762 11.6621 19.7916 11.8776L19.8 12V18.3C19.8 19.1404 19.4794 19.9491 18.9037 20.5612C18.3279 21.1733 17.5403 21.5427 16.7016 21.594L16.5 21.6H7.49995C6.65961 21.6001 5.8509 21.2795 5.23879 20.7037C4.62669 20.128 4.25729 19.3404 4.20595 18.5016L4.19995 18.3V12C4.20002 11.772 4.28664 11.5525 4.44232 11.3859C4.59799 11.2192 4.81111 11.1179 5.03861 11.1024C5.26611 11.0868 5.49102 11.1582 5.66791 11.3021C5.8448 11.446 5.96047 11.6517 5.99155 11.8776L5.99995 12V18.3C5.99995 19.0764 6.59035 19.716 7.34635 19.7928L7.49995 19.8H16.5C16.8711 19.7999 17.229 19.6622 17.5045 19.4135C17.78 19.1648 17.9535 18.8228 17.9916 18.4536L18 18.3V12C18 11.7613 18.0948 11.5324 18.2636 11.3636C18.4323 11.1948 18.6613 11.1 18.9 11.1ZM6.27235 7.75441L11.364 2.66401C11.5163 2.51159 11.7184 2.41891 11.9333 2.40284C12.1482 2.38676 12.3618 2.44835 12.5352 2.57641L12.636 2.66401L17.7276 7.75441C17.8906 7.91454 17.9867 8.13073 17.9962 8.35909C18.0058 8.58746 17.928 8.81089 17.7789 8.98405C17.6297 9.15721 17.4202 9.26712 17.1929 9.29148C16.9657 9.31584 16.7376 9.25282 16.5552 9.11521L16.4544 9.02761L12.9 5.47201V14.7C12.8999 14.9175 12.8212 15.1276 12.6782 15.2915C12.5353 15.4554 12.3378 15.562 12.1224 15.5916L12 15.6C11.7825 15.6 11.5723 15.5212 11.4084 15.3783C11.2445 15.2353 11.1379 15.0379 11.1084 14.8224L11.1 14.7V5.47201L7.54555 9.02761C7.3931 9.18034 7.19083 9.27322 6.97563 9.28929C6.76043 9.30537 6.54661 9.24359 6.37315 9.11521L6.27235 9.02761C6.11962 8.87515 6.02674 8.67289 6.01067 8.45769C5.99459 8.24249 6.05637 8.02867 6.18475 7.85521L6.27235 7.75441L11.364 2.66401L6.27235 7.75441Z" fill="black"/>
</svg>
