<svg width="24" height="24" viewBox="0 0 24 24" fill="none" xmlns="http://www.w3.org/2000/svg">
<path d="M11 2C9.67392 2 8.40215 2.52678 7.46447 3.46447C6.52678 4.40215 6 5.67392 6 7C6 8.32608 6.52678 9.59785 7.46447 10.5355C8.40215 11.4732 9.67392 12 11 12C12.3261 12 13.5979 11.4732 14.5355 10.5355C15.4732 9.59785 16 8.32608 16 7C16 5.67392 15.4732 4.40215 14.5355 3.46447C13.5979 2.52678 12.3261 2 11 2ZM11.123 14.55C11.2197 14.394 11.2717 14.2144 11.2731 14.0308C11.2745 13.8472 11.2254 13.6668 11.1311 13.5093C11.0368 13.3518 10.901 13.2233 10.7385 13.1379C10.5761 13.0525 10.3932 13.0134 10.21 13.025C8 13.165 6.015 13.883 4.559 14.838C3.831 15.316 3.211 15.869 2.763 16.468C2.32 17.057 2 17.755 2 18.5C2 20.035 3.278 20.846 4.495 21.263C5.775 21.702 7.485 21.901 9.327 21.97C9.4863 21.9761 9.64475 21.944 9.78914 21.8764C9.93352 21.8088 10.0597 21.7077 10.157 21.5815C10.2544 21.4552 10.3202 21.3076 10.3489 21.1508C10.3776 20.9939 10.3683 20.8325 10.322 20.68C10.1079 19.9732 9.99938 19.2386 10 18.5C9.99743 17.1042 10.3865 15.7357 11.123 14.55ZM13.51 15.278C14.368 14.521 15.594 13.888 17 13.888C18.406 13.888 19.632 14.521 20.49 15.278C20.9057 15.6404 21.2624 16.0656 21.547 16.538C21.799 16.965 22 17.478 22 18C22 18.523 21.8 19.035 21.547 19.462C21.2624 19.9344 20.9057 20.3596 20.49 20.722C19.632 21.479 18.406 22.112 17 22.112C15.594 22.112 14.368 21.479 13.51 20.722C13.0943 20.3596 12.7376 19.9344 12.453 19.462C12.2 19.035 12 18.522 12 18C12 17.477 12.2 16.965 12.453 16.538C12.7376 16.0656 13.0943 15.6404 13.51 15.278ZM17.996 17.913C17.869 17.9856 17.7216 18.0143 17.5766 17.9949C17.4316 17.9755 17.297 17.9089 17.1935 17.8055C17.0901 17.702 17.0235 17.5674 17.0041 17.4224C16.9847 17.2774 17.0134 17.13 17.086 17.003L17.001 17C16.8032 17 16.6099 17.0586 16.4454 17.1685C16.281 17.2784 16.1528 17.4346 16.0771 17.6173C16.0014 17.8 15.9816 18.0011 16.0202 18.1951C16.0588 18.3891 16.154 18.5673 16.2939 18.7071C16.4337 18.847 16.6119 18.9422 16.8059 18.9808C16.9999 19.0194 17.201 18.9996 17.3837 18.9239C17.5664 18.8482 17.7226 18.72 17.8325 18.5556C17.9424 18.3911 18.001 18.1978 18.001 18L17.996 17.913Z" fill="black"/>
</svg>
